<?xml version="1.0" ?><svg data-name="Layer 1" id="Layer_1" viewBox="0 0 32 32" xmlns="http://www.w3.org/2000/svg"><title/><path d="M16,23a7,7,0,1,1,7-7A7.008,7.008,0,0,1,16,23Zm0-12a5,5,0,1,0,5,5A5.006,5.006,0,0,0,16,11Z"/><path d="M16.587,29H15.413a2.807,2.807,0,0,1-2.726-2.128.8.8,0,0,0-.5-.559c-.268-.1-.53-.208-.787-.327a.791.791,0,0,0-.744.041,2.808,2.808,0,0,1-3.437-.419l-.83-.831a2.805,2.805,0,0,1-.423-3.432.8.8,0,0,0,.045-.749q-.178-.386-.325-.786a.793.793,0,0,0-.554-.495A2.809,2.809,0,0,1,3,16.587V15.413a2.807,2.807,0,0,1,2.128-2.726.8.8,0,0,0,.562-.5c.1-.265.206-.527.324-.784a.8.8,0,0,0-.04-.743,2.808,2.808,0,0,1,.418-3.438l.831-.83a2.807,2.807,0,0,1,3.432-.423.8.8,0,0,0,.749.044q.386-.177.784-.324a.792.792,0,0,0,.5-.554A2.809,2.809,0,0,1,15.413,3h1.174a2.807,2.807,0,0,1,2.726,2.128.8.8,0,0,0,.5.562c.265.1.527.206.784.324a.8.8,0,0,0,.743-.04,2.805,2.805,0,0,1,3.438.418l.83.831a2.805,2.805,0,0,1,.423,3.432.8.8,0,0,0-.044.749q.177.386.324.784a.792.792,0,0,0,.554.5A2.809,2.809,0,0,1,29,15.413v1.174a2.807,2.807,0,0,1-2.128,2.726.8.8,0,0,0-.562.5q-.147.4-.324.784a.8.8,0,0,0,.04.743,2.808,2.808,0,0,1-.418,3.438l-.831.83a2.8,2.8,0,0,1-3.432.423.8.8,0,0,0-.75-.044c-.257.119-.518.228-.785.327a.794.794,0,0,0-.5.554A2.808,2.808,0,0,1,16.587,29Zm-5.515-5.087a2.794,2.794,0,0,1,1.171.258c.211.1.425.186.644.267a2.794,2.794,0,0,1,1.739,1.943.811.811,0,0,0,.787.619h1.174a.81.81,0,0,0,.786-.614,2.794,2.794,0,0,1,1.741-1.948c.219-.082.433-.171.644-.268a2.794,2.794,0,0,1,2.611.142.81.81,0,0,0,.994-.119l.83-.83a.809.809,0,0,0,.122-.989,2.8,2.8,0,0,1-.147-2.613c.1-.209.185-.423.265-.64a2.791,2.791,0,0,1,1.946-1.746A.812.812,0,0,0,27,16.587V15.413a.81.81,0,0,0-.614-.786,2.8,2.8,0,0,1-1.953-1.748c-.08-.217-.168-.431-.265-.64a2.794,2.794,0,0,1,.144-2.607.812.812,0,0,0-.119-.995l-.83-.83a.808.808,0,0,0-.989-.122,2.793,2.793,0,0,1-2.613.147c-.209-.1-.422-.185-.639-.264a2.792,2.792,0,0,1-1.747-1.947A.812.812,0,0,0,16.587,5H15.413a.81.81,0,0,0-.786.614,2.8,2.8,0,0,1-1.748,1.953c-.217.08-.431.168-.64.265a2.794,2.794,0,0,1-2.607-.144.809.809,0,0,0-.995.119l-.83.83a.809.809,0,0,0-.122.989,2.8,2.8,0,0,1,.146,2.614c-.1.208-.184.421-.263.638a2.792,2.792,0,0,1-1.947,1.747A.812.812,0,0,0,5,15.413v1.174a.81.81,0,0,0,.614.786A2.794,2.794,0,0,1,7.567,19.12c.08.219.169.432.265.641a2.791,2.791,0,0,1-.144,2.607.812.812,0,0,0,.119,1l.83.83a.809.809,0,0,0,.989.122A2.809,2.809,0,0,1,11.072,23.913Z"/></svg>