<?xml version="1.0" ?><svg height="52px" version="1.1" viewBox="0 0 42 52" width="42px" xmlns="http://www.w3.org/2000/svg" xmlns:sketch="http://www.bohemiancoding.com/sketch/ns" xmlns:xlink="http://www.w3.org/1999/xlink"><title/><defs/><g fill="none" fill-rule="evenodd" id="Page-2" stroke="none" stroke-width="1"><path d="M11.5677735,6.49244918 C11.5677735,1.91325117 14.0842743,-3.00965153 21.5773395,2.42012031 C29.0704047,-3.00965153 31.5869055,1.91325117 31.5869055,6.49244918 C31.5869055,8.41912254 22.9722209,19.5610918 21.7267039,21.1619376 C23.3275497,19.9164199 34.4695187,11.3017357 36.3961917,11.3017357 C40.9753896,11.3017357 45.8982927,13.8182364 40.468521,21.3113017 C45.8982927,28.8043669 40.9753896,31.3208677 36.3961917,31.3208677 C34.4695187,31.3208677 23.3275497,22.7061834 21.7267039,21.4606657 C22.9722209,23.0615116 31.5869055,34.2034808 31.5869055,36.1301542 C31.5869055,40.7093522 29.0704047,45.6322549 21.5773395,40.202483 C14.0842743,45.6322549 11.5677735,40.7093522 11.5677735,36.1301542 C11.5677735,34.3630475 20.509326,22.5534448 20.509326,22.5534448 C20.509326,22.5534448 2.50217049,41.6113813 -2.02400176,42.4776782 C-2.03233127,42.469565 -3.15936078,41.3024325 -3.15936078,41.3024325 C2.85057592,40.3387932 20.2551101,22.2719945 20.2551101,22.2719945 C20.2551101,22.2719945 8.55364936,31.3208677 6.75848733,31.3208677 C2.17928939,31.3208677 -2.74361369,28.8043669 2.68615796,21.3113017 C-2.74361369,13.8182364 2.17928939,11.3017357 6.75848733,11.3017357 C8.68516029,11.3017357 19.8271294,19.9164199 21.4279751,21.1619376 C20.1824581,19.5610917 11.5677735,8.41912254 11.5677735,6.49244918 Z M11.5677735,6.49244918" fill="#479951" id="four_leaf_clover" transform="translate(19.846495, 21.311302) rotate(-45.000000) translate(-19.846495, -21.311302) "/></g></svg>