<?xml version="1.0" ?><!DOCTYPE svg  PUBLIC '-//W3C//DTD SVG 1.1//EN'  'http://www.w3.org/Graphics/SVG/1.1/DTD/svg11.dtd'><svg enable-background="new 0 0 512 512" height="512px" id="Layer_1" version="1.1" viewBox="0 0 512 512" width="512px" xml:space="preserve" xmlns="http://www.w3.org/2000/svg" xmlns:xlink="http://www.w3.org/1999/xlink"><g><polygon fill="#A12525" points="172.069,223.71 73.611,434.755 160.131,448.672 226.386,506.03 324.844,294.981  "/><polygon fill="#831919" points="334.236,214.721 432.698,425.77 346.182,439.679 279.922,497.038 181.461,285.989  "/><path d="M237.401,17.449c10.561,7.408,27.839,7.408,38.403,0l8.519-5.969c10.557-7.408,24.358-4.255,30.655,7   l5.083,9.067c6.297,11.255,21.87,18.755,34.606,16.667l10.248-1.685c12.729-2.092,23.792,6.734,24.591,19.608l0.641,10.374   c0.79,12.877,11.571,26.387,23.95,30.027l9.966,2.937c12.378,3.639,18.518,16.388,13.643,28.333l-3.918,9.625   c-4.866,11.946-1.023,28.796,8.543,37.443l7.712,6.971c9.575,8.647,9.575,22.797,0,31.449l-7.712,6.967   c-9.566,8.652-13.409,25.501-8.543,37.448l3.918,9.624c4.875,11.946-1.265,24.69-13.643,28.334l-9.966,2.929   c-12.379,3.644-23.16,17.153-23.95,30.031l-0.641,10.382c-0.799,12.869-11.862,21.695-24.591,19.599l-10.248-1.681   c-12.736-2.096-28.31,5.407-34.606,16.663l-5.083,9.076c-6.297,11.247-20.099,14.399-30.655,6.987l-8.519-5.956   c-10.564-7.412-27.843-7.412-38.403,0l-8.51,5.956c-10.561,7.412-24.362,4.26-30.663-6.987l-5.079-9.076   c-6.302-11.256-21.875-18.759-34.602-16.663l-10.257,1.681c-12.732,2.097-23.792-6.729-24.586-19.599l-0.641-10.382   c-0.794-12.878-11.571-26.388-23.946-30.031l-9.974-2.929c-12.374-3.644-18.518-16.388-13.647-28.334l3.927-9.624   c4.871-11.946,1.023-28.796-8.548-37.448l-7.716-6.967c-9.566-8.652-9.566-22.802,0-31.449l7.716-6.971   c9.571-8.647,13.418-25.498,8.548-37.443l-3.927-9.625c-4.871-11.946,1.273-24.694,13.647-28.333l9.974-2.937   c12.375-3.64,23.151-17.149,23.946-30.027l0.641-10.374c0.794-12.874,11.854-21.7,24.586-19.608l10.257,1.685   c12.728,2.088,28.3-5.411,34.602-16.667l5.079-9.067c6.301-11.255,20.103-14.408,30.663-7L237.401,17.449z" fill="#B99B3D"/><path d="M237.401,36.291c10.561,7.408,27.839,7.408,38.403,0l8.519-5.969c10.557-7.408,24.358-4.255,30.655,7   l5.083,9.068c6.297,11.255,21.87,18.754,34.606,16.667l10.248-1.685c12.729-2.092,23.792,6.734,24.591,19.607l0.641,10.374   c0.79,12.878,11.571,26.388,23.95,30.027l9.966,2.937c12.378,3.64,18.518,16.388,13.643,28.334l-3.918,9.625   c-4.866,11.946-1.023,28.795,8.543,37.443l7.712,6.971c9.575,8.647,9.575,22.798,0,31.449l-7.712,6.967   c-9.566,8.651-13.409,25.501-8.543,37.447l3.918,9.616c4.875,11.946-1.265,24.707-13.643,28.343l-9.966,2.937   c-12.379,3.635-23.16,17.153-23.95,30.022l-0.641,10.373c-0.799,12.878-11.862,21.696-24.591,19.616l-10.248-1.688   c-12.736-2.088-28.31,5.407-34.606,16.662l-5.083,9.067c-6.297,11.264-20.099,14.408-30.655,7.005l-8.519-5.973   c-10.564-7.404-27.843-7.404-38.403,0l-8.51,5.973c-10.561,7.403-24.362,4.259-30.663-7.005l-5.079-9.067   c-6.302-11.255-21.875-18.75-34.602-16.662l-10.257,1.688c-12.732,2.08-23.792-6.738-24.586-19.616l-0.641-10.373   c-0.794-12.869-11.571-26.388-23.946-30.022l-9.974-2.937c-12.374-3.636-18.518-16.396-13.647-28.343l3.927-9.616   c4.871-11.946,1.023-28.796-8.548-37.447l-7.716-6.967c-9.566-8.651-9.566-22.802,0-31.449l7.716-6.971   c9.571-8.647,13.418-25.497,8.548-37.443l-3.927-9.625c-4.871-11.946,1.273-24.694,13.647-28.334l9.974-2.937   c12.375-3.639,23.151-17.149,23.946-30.027l0.641-10.374c0.794-12.873,11.854-21.7,24.586-19.607l10.257,1.685   c12.728,2.088,28.3-5.411,34.602-16.667l5.079-9.068c6.301-11.255,20.103-14.408,30.663-7L237.401,36.291z" fill="#EFC84A"/><g><path d="M114.303,222.412c0-78.592,63.714-142.302,142.302-142.302c78.596,0,142.302,63.709,142.302,142.302    S335.2,364.71,256.605,364.71C178.017,364.71,114.303,301.005,114.303,222.412z" fill="#DEB944"/><path d="M256.605,351.292c-76.342,0-138.633-60.12-142.14-135.593c-0.104,2.226-0.162,4.463-0.162,6.713    c0,78.592,63.714,142.297,142.302,142.297c78.596,0,142.302-63.705,142.302-142.297c0-2.25-0.059-4.488-0.166-6.713    C395.246,291.172,332.947,351.292,256.605,351.292z" fill="#B99B3D"/></g><path d="M256.605,93.529c76.342,0,138.642,60.116,142.136,135.592c0.107-2.225,0.166-4.458,0.166-6.709   c0-78.592-63.706-142.302-142.302-142.302c-78.588,0-142.302,63.709-142.302,142.302c0,2.25,0.058,4.484,0.162,6.709   C117.971,153.645,180.263,93.529,256.605,93.529z" fill="#FFDC7B"/></g></svg>