<?xml version="1.0" encoding="UTF-8"?>
<svg width="46px" height="47px" viewBox="0 0 46 47" version="1.1" xmlns="http://www.w3.org/2000/svg" xmlns:xlink="http://www.w3.org/1999/xlink">
    <title>logo</title>
    <g id="Page-1" stroke="none" stroke-width="1" fill="none" fill-rule="evenodd">
        <g id="logo" transform="translate(12.000000, -2.000000)">
            <circle id="path2950" stroke="#CCCCCC" stroke-width="9" fill-opacity="0" fill="#FFFFFF" stroke-linejoin="round" cx="11.5" cy="25.557485" r="11.5"></circle>
            <g id="g917" transform="translate(3.675888, 0.000000)">
                <rect id="rect905" x="0" y="0" width="16" height="11"></rect>
                <path d="M14.4743263,4.1710365 C14.19387,4.01746585 13.8044331,3.98228445 13.47113,4.08040866 L10.4315056,4.96698555 L8.6654,2.87860409 C8.29471437,2.45044529 7.35408062,2.45044529 6.983395,2.87860409 L5.21728894,4.96698555 L2.17766481,4.08040866 C1.45058588,3.86710973 0.666183,4.29316181 0.850082,4.80149141 L2.37590119,9.06888297 C2.43486056,9.23583762 2.59551013,9.37966219 2.82043119,9.46685738 C2.97111781,9.52602363 3.14340525,9.55733969 3.31902569,9.55748499 C3.40439737,9.55739941 3.48932475,9.54942227 3.5713265,9.53384352 C6.18231094,8.68901816 9.12886687,8.70669637 12.0714613,9.53384352 C12.3254056,9.57763598 12.595465,9.55354426 12.8223563,9.46685738 C13.0487537,9.38073555 13.2099319,9.23643746 13.2668863,9.06888297 L14.7987125,4.80149141 C14.8822206,4.56797387 14.756485,4.32360242 14.4743263,4.1710365 Z" id="path907" fill="#CCCCCC" fill-rule="nonzero"></path>
            </g>
        </g>
    </g>
</svg>