<?xml version="1.0" ?><svg height="512px" preserveAspectRatio="none" version="1.1" viewBox="0 0 512 512" width="512px" xmlns="http://www.w3.org/2000/svg" xmlns:xlink="http://www.w3.org/1999/xlink"><defs><g id="Layer0_0_FILL"><path d=" M 495.05 257.7 Q 495.05 157.5 424.2 86.65 353.35 15.75 253.2 15.75 153 15.75 82.15 86.65 11.25 157.5 11.25 257.7 11.25 357.85 82.15 428.7 153 499.55 253.2 499.55 353.35 499.55 424.2 428.7 495.05 357.85 495.05 257.7 M 422.55 88.3 Q 492.7 158.45 492.7 257.65 492.7 356.85 422.55 427 352.4 497.15 253.2 497.15 154 497.15 83.85 427 13.65 356.85 13.65 257.65 13.65 158.45 83.85 88.3 154 18.1 253.2 18.1 352.4 18.1 422.55 88.3 M 451.65 303.8 Q 456.65 281.4814453125 456.65 257.1 456.65 172.65 396.95 112.95 337.25 53.25 252.85 53.25 168.4 53.25 108.7 112.95 63.3228515625 158.3271484375 52.4 218 64.7033203125 163.0466796875 107.15 120.6 166.85 60.9 251.3 60.9 335.7 60.9 395.4 120.6 455.1 180.3 455.1 264.75 455.1 284.9859375 451.65 303.8 Z" fill="#EFA700" stroke="none"/><path d=" M 492.7 257.65 Q 492.7 158.45 422.55 88.3 352.4 18.1 253.2 18.1 154 18.1 83.85 88.3 13.65 158.45 13.65 257.65 13.65 356.85 83.85 427 154 497.15 253.2 497.15 352.4 497.15 422.55 427 492.7 356.85 492.7 257.65 M 456.65 257.1 Q 456.65 281.4814453125 451.65 303.8 440.786328125 363.463671875 395.4 408.85 335.7 468.55 251.3 468.55 166.85 468.55 107.15 408.85 47.45 349.15 47.45 264.75 47.45 240.34375 52.4 218 63.3228515625 158.3271484375 108.7 112.95 168.4 53.25 252.85 53.25 337.25 53.25 396.95 112.95 456.65 172.65 456.65 257.1 Z" fill="#FEDD14" stroke="none"/><path d=" M 52.4 218 Q 47.45 240.34375 47.45 264.75 47.45 349.15 107.15 408.85 166.85 468.55 251.3 468.55 335.7 468.55 395.4 408.85 440.786328125 363.463671875 451.65 303.8 439.40390625 358.74609375 396.95 401.2 337.25 460.9 252.85 460.9 168.4 460.9 108.7 401.2 49 341.5 49 257.1 49 236.8392578125 52.4 218 Z" fill="#FFE43F" stroke="none"/><path d=" M 451.65 303.8 Q 455.1 284.9859375 455.1 264.75 455.1 180.3 395.4 120.6 335.7 60.9 251.3 60.9 166.85 60.9 107.15 120.6 64.7033203125 163.0466796875 52.4 218 49 236.8392578125 49 257.1 49 341.5 108.7 401.2 168.4 460.9 252.85 460.9 337.25 460.9 396.95 401.2 439.40390625 358.74609375 451.65 303.8 Z" fill="#FFC001" stroke="none"/></g><g id="Layer0_1_FILL"><path d=" M 169.1 390.15 L 173.65 394.7 226.55 394.7 242.65 308.35 275.4 308.35 274.55 303.8 238.15 303.8 222.05 390.15 169.1 390.15 M 153.7 308.35 L 152.85 303.8 113.1 303.8 117.65 308.35 153.7 308.35 M 112.95 254.2 L 117.45 258.7 144.5 258.7 143.65 254.2 112.95 254.2 M 287.7 141.45 L 283.15 136.95 298.35 223.15 302.1 223.15 287.7 141.45 M 172.9 141.45 L 168.4 136.95 182 223.15 185.8 223.15 172.9 141.45 M 403.7 277.25 L 399.15 272.7 399.15 303.8 357.85 303.8 341.45 390.15 290.4 390.15 294.9 394.7 345.95 394.7 362.35 308.35 403.7 308.35 403.7 277.25 M 403.7 227.65 L 399.15 223.15 399.15 254.2 367.2 254.2 363.7 272.7 369.05 272.7 371.7 258.7 403.7 258.7 403.7 227.65 M 317 308.35 L 319.25 308.35 Q 319.3 307.85 319.4 307.35 L 319.85 303.8 312.45 303.8 313.35 308.4 Q 314.2 313 314.95 319.85 315.5 326.6 316.15 335.6 L 316.7 335.6 Q 317.1 325.55 318.35 315.35 318.1 314.1 317.9 312.9 L 317 308.35 M 201.95 308.35 Q 202.1 307.35 202.3 306.3 L 202.65 303.8 194.9 303.8 195.45 307 Q 196.3 312.45 196.85 319.7 197.35 326.8 197.7 335.95 L 198.6 335.95 Q 198.95 326.6 200.6 316.1 200.3 313.7 199.95 311.5 L 199.4 308.35 201.95 308.35 M 193.7 272.7 L 191.45 258.7 211.5 258.7 212.4 254.2 186.95 254.2 189.9 272.7 193.7 272.7 M 249.35 272.7 L 252 258.7 266.35 258.7 265.5 254.2 247.5 254.2 244 272.7 249.35 272.7 M 256.85 197.7 L 256.3 197.7 Q 255.75 204.6 255.1 210.95 254.35 217.3 253.35 223.15 L 258.6 223.15 Q 258.95 220.95 259.25 218.7 258.7 214.9 258.25 210.95 257.4 204.4 256.85 197.7 M 326.95 258.7 L 327.65 254.2 303.85 254.2 307 272.7 310.75 272.7 308.35 258.7 326.95 258.7 M 394 141.45 L 389.5 136.95 373.2 223.15 378.6 223.15 394 141.45 Z" fill="#EFA700" stroke="none"/><path d=" M 389.5 136.95 L 345.85 136.95 332.45 223.15 302.1 223.15 298.35 223.15 283.15 136.95 235.5 136.95 218.55 223.15 185.8 223.15 182 223.15 168.4 136.95 121.8 136.95 137.85 223.15 112.95 223.15 112.95 254.2 143.65 254.2 144.5 258.7 147 272.7 112.95 272.7 113.1 303.8 152.85 303.8 153.7 308.35 169.1 390.15 222.05 390.15 238.15 303.8 274.55 303.8 275.4 308.35 290.4 390.15 341.45 390.15 357.85 303.8 399.15 303.8 399.15 272.7 369.05 272.7 363.7 272.7 367.2 254.2 399.15 254.2 399.15 223.15 378.6 223.15 373.2 223.15 389.5 136.95 M 326.95 258.7 L 324.65 272.7 310.75 272.7 307 272.7 303.85 254.2 327.65 254.2 326.95 258.7 M 256.3 197.7 L 256.85 197.7 Q 257.4 204.4 258.25 210.95 258.7 214.9 259.25 218.7 259.55 220.95 259.85 223.15 L 258.6 223.15 253.35 223.15 Q 254.35 217.3 255.1 210.95 255.75 204.6 256.3 197.7 M 266.35 258.7 L 268.9 272.7 249.35 272.7 244 272.7 247.5 254.2 265.5 254.2 266.35 258.7 M 193.7 272.7 L 189.9 272.7 186.95 254.2 212.4 254.2 211.5 258.7 208.8 272.7 193.7 272.7 M 201.95 308.35 Q 201.15 312.3 200.6 316.1 198.95 326.6 198.6 335.95 L 197.7 335.95 Q 197.35 326.8 196.85 319.7 196.3 312.45 195.45 307 L 194.9 303.8 202.65 303.8 202.3 306.3 Q 202.1 307.35 201.95 308.35 M 319.85 303.8 L 319.4 307.35 Q 319.3 307.85 319.25 308.35 318.75 311.85 318.35 315.35 317.1 325.55 316.7 335.6 L 316.15 335.6 Q 315.5 326.6 314.95 319.85 314.2 313 313.35 308.4 L 312.45 303.8 319.85 303.8 Z" fill="#FEDD14" stroke="none"/></g><g id="Layer0_2_FILL"><path d=" M 124.2 426.65 Q 113.3 418.1 103.15 407.95 84.65 389.45 71.6 368.75 L 44.25 396.1 Q 58.2 416.6 76.85 435.25 86.75 445.15 97.15 453.7 L 124.2 426.65 M 208.9 466.45 Q 198.7 464.3 188.85 461.15 L 159 491.05 Q 168.1 494.75 177.55 497.8 L 208.9 466.45 M 185 50.9 L 232.45 3.5 Q 171.2 8.6 121.15 40.85 L 40.9 121.1 Q 8.65 171.15 3.55 232.4 L 51.15 184.75 Q 66.55 139.45 103.15 102.9 139.7 66.3 185 50.9 M 453.75 97.1 Q 445.15 86.7 435.3 76.8 416.65 58.15 396.1 44.2 L 369 71.35 Q 389.7 84.4 408.2 102.9 418.35 113.05 426.9 123.95 L 453.75 97.1 M 497.8 177.5 Q 494.8 168.05 491.1 158.95 L 461.4 188.6 Q 464.55 198.45 466.7 208.65 L 497.8 177.5 Z" fill="#FFE43F" stroke="none"/></g><g id="Layer0_3_FILL"><path d=" M 136.55 303.8 L 152.85 303.8 167.75 383.05 236.1 314.75 238.15 303.8 247.05 303.8 327.7 223.15 298.35 223.15 286.15 154.15 218.85 221.45 218.55 223.15 217.2 223.15 136.55 303.8 M 256.3 197.7 L 256.85 197.7 Q 257.4 204.4 258.25 210.95 258.7 214.9 259.25 218.7 259.55 220.95 259.85 223.15 L 253.35 223.15 Q 254.35 217.3 255.1 210.95 255.75 204.6 256.3 197.7 M 244 272.7 L 247.5 254.2 265.5 254.2 268.9 272.7 244 272.7 M 189.9 272.7 L 186.95 254.2 212.4 254.2 208.8 272.7 189.9 272.7 M 195.45 307 L 194.9 303.8 202.65 303.8 202.3 306.3 Q 202.1 307.35 201.95 308.35 201.15 312.3 200.6 316.1 198.95 326.6 198.6 335.95 L 197.7 335.95 Q 197.35 326.8 196.85 319.7 196.3 312.45 195.45 307 M 169.65 145.05 L 168.4 136.95 158.45 136.95 127.55 167.85 130.55 184.15 169.65 145.05 M 399.15 272.7 L 377.3 272.7 316.8 333.2 Q 316.7478515625 334.3970703125 316.7 335.6 L 316.15 335.6 Q 316.0904296875 334.774609375 316 333.95 L 285.65 364.35 289.6 385.75 354.65 320.7 357.85 303.8 371.55 303.8 399.15 276.2 399.15 272.7 M 383.8 167.05 L 389.5 136.95 345.85 136.95 333.3 217.5 383.8 167.05 Z" fill="#FFE43F" stroke="none"/></g><g id="Symbol_1_0_Layer0_0_FILL"><path d=" M 931 67.1 Q 931.2 95.2 901.15 95.5 931.65 95.95 930.95 125.25 932.45 97.15 959.55 95.55 932.7 96.3 931 67.1 Z" fill="#FFFFFF" stroke="none"/></g></defs><g transform="matrix( 1.05828857421875, 0, 0, 1.05828857421875, -11.9,-16.65) "><use xlink:href="#Layer0_0_FILL"/></g><g transform="matrix( 1, 0, 0, 1, 0,0) "><use xlink:href="#Layer0_1_FILL"/></g><g transform="matrix( 1, 0, 0, 1, 0,0) "><use xlink:href="#Layer0_2_FILL"/></g><g transform="matrix( 1, 0, 0, 1, 0,0) "><use xlink:href="#Layer0_3_FILL"/></g><g transform="matrix( 1.05828857421875, 0, 0, 1.05828857421875, 286.2,154.15) "><g transform="matrix( 1, 0, 0, 1, -930.35,-96.15) "><use xlink:href="#Symbol_1_0_Layer0_0_FILL"/></g></g><g transform="matrix( 0.529144287109375, 0, 0, 0.529144287109375, 152.85,303.4) "><g transform="matrix( 1, 0, 0, 1, -930.35,-96.15) "><use xlink:href="#Symbol_1_0_Layer0_0_FILL"/></g></g><g transform="matrix( 0.529144287109375, 0, 0, 0.529144287109375, 363.7,272.65) "><g transform="matrix( 1, 0, 0, 1, -930.35,-96.15) "><use xlink:href="#Symbol_1_0_Layer0_0_FILL"/></g></g></svg>