<?xml version="1.0" ?><svg enable-background="new 0 0 24 24" id="Layer_1" version="1.1" viewBox="0 0 24 24" xml:space="preserve" xmlns="http://www.w3.org/2000/svg" xmlns:xlink="http://www.w3.org/1999/xlink"><g><path d="M23,9c0-0.9375-0.3095703-1.7163086-0.8945312-2.2519531C21.5708008,6.2587891,20.8432617,6,20.0014648,6   H20c-0.977478,0.0003662-2.3011475,0.7004395-3.6087646,1.6087646C17.2995605,6.3011475,17.9996338,4.977478,18,4   c0.0004883-0.8422852-0.2583008-1.5703125-0.7480469-2.1054688C16.7163086,1.3095703,15.9375,1,15,1   c-1.0004883,0-2.2553711,0.6904297-3,1.3139648C11.2553711,1.6904297,10.0004883,1,9,1   C7.1782227,1,6.0004883,2.1777344,6,3.9995117C5.9994507,4.9763184,6.699585,6.3001709,7.6082153,7.6082153   C6.3007812,6.6999512,4.9775391,6,4.0009766,6C4.0004883,6,4,6,4,6C2.1777344,6.0004883,1,7.1782227,1,9   c0,1.0004883,0.6904297,2.2553711,1.3139648,3C1.6904297,12.7446289,1,13.9995117,1,15c0,1.8222656,1.1777344,3,3,3   c0.9771118,0,2.3006592-0.6999512,3.6082153-1.6082153C6.6999512,17.6993408,6,19.0228882,6,20c0,1.8222656,1.1777344,3,3,3   c1.0004883,0,2.2553711-0.6904297,3-1.3139648C12.7446289,22.3095703,13.9995117,23,15,23   c1.8217773,0,2.9995117-1.1777344,3-2.9995117c0.0002441-0.4745483-0.1687012-1.0325928-0.4424438-1.6293335   c1.2005615,1.2537231,2.5142822,2.7872314,3.5186157,4.3939819C21.1708984,22.9169922,21.3339844,23,21.5004883,23   c0.090332,0,0.1821289-0.0244141,0.2646484-0.0761719c0.2338867-0.1459961,0.3051758-0.4545898,0.1586914-0.6889648   c-1.1399536-1.8241577-2.6324463-3.5319214-3.9425049-4.8720093C18.723938,17.7484741,19.4232178,18.0001221,19.9990234,18   C19.9995117,18,20,18,20,18c1.8222656-0.0004883,3-1.1782227,3-3c0-1.0004883-0.6904297-2.2553711-1.3139648-3   C22.3095703,11.2553711,23,10.0004883,23,9z" fill="#303C42"/><path d="M9,2c0.8198242,0,2.1401367,0.7983398,2.6303711,1.3364258   c0.1894531,0.2089844,0.5498047,0.2089844,0.7392578,0C12.8598633,2.7983398,14.1801758,2,15,2   c0.6586914,0,1.1679688,0.1918945,1.5141602,0.5698242C16.8320312,2.9169922,17,3.4116211,17,4   c-0.0004883,1.7460938-3.3320312,5.5576172-5,7.2861328C10.3310547,9.5571289,6.9990234,5.7446289,7,4C7,3.3989258,7.1953125,2,9,2   z" fill="#69B342"/><path d="M17,4c0-0.5883789-0.1679688-1.0830078-0.4858398-1.4301758   C16.1679688,2.1918945,15.6586914,2,15,2c-0.8198242,0-2.1401367,0.7983398-2.6303711,1.3364258   c-0.1894531,0.2089844-0.5498047,0.2089844-0.7392578,0C11.1401367,2.7983398,9.8198242,2,9,2C7.1953125,2,7,3.3989258,7,4   c-0.0009155,1.652771,2.9871216,5.1582642,4.7209473,6.9932251c-1.460144-1.5513916-3.9140625-4.4453125-3.913269-5.8162842   C7.8076782,4.6729126,7.9714355,3.5,9.4846191,3.5c0.6873779,0,1.7944336,0.6693726,2.2054443,1.1205444   c0.1588745,0.1752319,0.4609985,0.1752319,0.619873,0C12.7209473,4.1693726,13.8280029,3.5,14.5153809,3.5   c0.5523071,0,0.9793091,0.1608887,1.2695923,0.4777832c0.2665405,0.2910767,0.4073486,0.7058105,0.4073486,1.1991577   C16.1919556,6.6409912,13.3985596,9.836792,12,11.2861328C13.6679688,9.5576172,16.9995117,5.7460938,17,4z" fill="#FFFFFF" opacity="0.2"/><path d="M2,15c0-0.8198242,0.7983398-2.1401367,1.3364258-2.6303711C3.440918,12.2749023,3.5,12.140625,3.5,12   s-0.059082-0.2749023-0.1635742-0.3696289C2.7983398,11.1401367,2,9.8198242,2,9c0-1.8046875,1.3989258-2,2.0004883-2h0.0004883   c1.7446289,0,5.5566406,3.331543,7.2851562,5C9.5576172,13.668457,5.7451172,17,4,17C3.3984375,17,2,16.8051758,2,15z" fill="#69B342"/><path d="M5.2000122,16.25C4.6886597,16.25,3.5,16.0844116,3.5,14.5499878   c0-0.6968384,0.6785889-1.8190918,1.1359863-2.2358398C4.7247925,12.2336426,4.7750244,12.1195068,4.7750244,12   c0-0.1195679-0.0502319-0.2337036-0.1390381-0.314209C4.1785889,11.269104,3.5,10.1468506,3.5,9.4500122   C3.5,7.9160156,4.6890869,7.75,5.2004395,7.75h0.0003662c0.6068726,0,1.5090332,0.477417,2.4627075,1.1350098   C6.2717285,7.8386841,4.8762207,7,4.0009766,7H4.0004883C3.3989258,7,2,7.1953125,2,9   c0,0.8198242,0.7983398,2.1401367,1.3364258,2.6303711C3.440918,11.7250977,3.5,11.859375,3.5,12   s-0.059082,0.2749023-0.1635742,0.3696289C2.7983398,12.8598633,2,14.1801758,2,15c0,1.8051758,1.3984375,2,2,2   c0.8756714,0,2.2718506-0.8390503,3.6640625-1.8856812C6.7099609,15.7722168,5.807251,16.25,5.2000122,16.25z" fill="#FFFFFF" opacity="0.2"/><path d="M15,22c-0.8198242,0-2.1401367-0.7983398-2.6303711-1.3364258C12.2749023,20.559082,12.140625,20.5,12,20.5   s-0.2749023,0.059082-0.3696289,0.1635742C11.1401367,21.2016602,9.8198242,22,9,22c-1.8051758,0-2-1.3984375-2-2   c0-1.7451172,3.331543-5.5576172,5-7.2861328C13.6689453,14.4428711,17.0009766,18.2553711,17,20   C17,20.6010742,16.8046875,22,15,22z" fill="#69B342"/><path d="M12.2624512,12.9893188c1.3665161,1.4520874,3.661377,4.1588135,3.6606445,5.4414062   C15.9230957,18.9023438,15.7698975,20,14.3538818,20c-0.6432495,0-1.6791992-0.6264038-2.0638428-1.048584   C12.2156982,18.8693848,12.1103516,18.8230591,12,18.8230591s-0.2156982,0.0463257-0.2900391,0.1283569   C11.3253174,19.3735962,10.2893677,20,9.6461182,20c-1.4163818,0-1.5692139-1.09729-1.5692139-1.5692749   c0-1.2828979,2.2945557-3.9898071,3.6607666-5.4415283C10.006897,14.8186035,7,18.3413086,7,20c0,0.6015625,0.1948242,2,2,2   c0.8198242,0,2.1401367-0.7983398,2.6303711-1.3364258C11.7250977,20.559082,11.859375,20.5,12,20.5   s0.2749023,0.059082,0.3696289,0.1635742C12.8598633,21.2016602,14.1801758,22,15,22c1.8046875,0,2-1.3989258,2-2   C17.0009155,18.3417969,13.9937134,14.8191528,12.2624512,12.9893188z" opacity="0.1"/><path d="M22,15c0,1.8046875-1.3989258,2-2.0004883,2h-0.0004883   c-1.7446289-0.0004883-5.5566406-3.331543-7.2851562-5C14.4418945,10.331543,18.2529297,7.0004883,20,7h0.0014648   c0.5874023,0,1.081543,0.1679688,1.4287109,0.4858398C21.8081055,7.8320312,22,8.3413086,22,9   c0,0.8198242-0.7983398,2.1401367-1.3364258,2.6303711C20.559082,11.7250977,20.5,11.859375,20.5,12   s0.059082,0.2749023,0.1635742,0.3696289C21.2016602,12.8598633,22,14.1801758,22,15z" fill="#69B342"/><path d="M20.5,12c0-0.140625,0.059082-0.2749023,0.1635742-0.3696289C21.2016602,11.1401367,22,9.8198242,22,9   c0-0.6586914-0.1918945-1.1679688-0.5698242-1.5141602C21.0830078,7.1679688,20.5888672,7,20.0014648,7H20   c-0.876709,0.0002441-2.2731934,0.8394165-3.6654053,1.8861694c0.9542847-0.65802,1.8573608-1.1359863,2.4653931-1.1361694   h0.0012817c0.4992676,0,0.9193115,0.1427612,1.2143555,0.4129639C20.3369141,8.4572144,20.5,8.8900757,20.5,9.4500122   c0,0.6968384-0.6785889,1.8190918-1.1359863,2.2357788C19.2752075,11.7662964,19.2249756,11.8804321,19.2249756,12   c0,0.1195068,0.0502319,0.2336426,0.1390381,0.3141479C19.8214111,12.730896,20.5,13.8531494,20.5,14.5499878   C20.5,16.0839844,19.3109131,16.25,18.7995605,16.25h-0.0003662c-0.6069946-0.0001831-1.5092773-0.4778442-2.4630737-1.135498   C17.7280273,16.1608887,19.1237183,16.9997559,19.9990234,17h0.0004883C20.6010742,17,22,16.8046875,22,15   c0-0.8198242-0.7983398-2.1401367-1.3364258-2.6303711C20.559082,12.2749023,20.5,12.140625,20.5,12z" opacity="0.1"/><linearGradient gradientUnits="userSpaceOnUse" id="SVGID_1_" x1="1.508899" x2="24.2780361" y1="7.1082473" y2="17.7256699"><stop offset="0" style="stop-color:#FFFFFF;stop-opacity:0.2"/><stop offset="1" style="stop-color:#FFFFFF;stop-opacity:0"/></linearGradient><path d="M23,9c0-0.9375-0.3095703-1.7163086-0.8945312-2.2519531   C21.5708008,6.2587891,20.8432617,6,20.0014648,6H20c-0.977478,0.0003662-2.3011475,0.7004395-3.6087646,1.6087646   C17.2995605,6.3011475,17.9996338,4.977478,18,4c0.0004883-0.8422852-0.2583008-1.5703125-0.7480469-2.1054688   C16.7163086,1.3095703,15.9375,1,15,1c-1.0004883,0-2.2553711,0.6904297-3,1.3139648C11.2553711,1.6904297,10.0004883,1,9,1   C7.1782227,1,6.0004883,2.1777344,6,3.9995117C5.9994507,4.9763184,6.699585,6.3001709,7.6082153,7.6082153   C6.3007812,6.6999512,4.9775391,6,4.0009766,6C4.0004883,6,4,6,4,6C2.1777344,6.0004883,1,7.1782227,1,9   c0,1.0004883,0.6904297,2.2553711,1.3139648,3C1.6904297,12.7446289,1,13.9995117,1,15c0,1.8222656,1.1777344,3,3,3   c0.9771118,0,2.3006592-0.6999512,3.6082153-1.6082153C6.6999512,17.6993408,6,19.0228882,6,20c0,1.8222656,1.1777344,3,3,3   c1.0004883,0,2.2553711-0.6904297,3-1.3139648C12.7446289,22.3095703,13.9995117,23,15,23   c1.8217773,0,2.9995117-1.1777344,3-2.9995117c0.0002441-0.4745483-0.1687012-1.0325928-0.4424438-1.6293335   c1.2005615,1.2537231,2.5142822,2.7872314,3.5186157,4.3939819C21.1708984,22.9169922,21.3339844,23,21.5004883,23   c0.090332,0,0.1821289-0.0244141,0.2646484-0.0761719c0.2338867-0.1459961,0.3051758-0.4545898,0.1586914-0.6889648   c-1.1399536-1.8241577-2.6324463-3.5319214-3.9425049-4.8720093C18.723938,17.7484741,19.4232178,18.0001221,19.9990234,18   C19.9995117,18,20,18,20,18c1.8222656-0.0004883,3-1.1782227,3-3c0-1.0004883-0.6904297-2.2553711-1.3139648-3   C22.3095703,11.2553711,23,10.0004883,23,9z" fill="url(#SVGID_1_)"/></g><g/><g/><g/><g/><g/><g/><g/><g/><g/><g/><g/><g/><g/><g/><g/></svg>