<?xml version="1.0" encoding="UTF-8" standalone="no"?>
<!-- Created with Inkscape (http://www.inkscape.org/) -->

<svg
   width="162mm"
   height="114mm"
   viewBox="0 0 162 114"
   version="1.1"
   id="svg5"
   inkscape:version="1.1.2 (b8e25be8, 2022-02-05)"
   sodipodi:docname="anseolab.svg"
   xmlns:inkscape="http://www.inkscape.org/namespaces/inkscape"
   xmlns:sodipodi="http://sodipodi.sourceforge.net/DTD/sodipodi-0.dtd"
   xmlns="http://www.w3.org/2000/svg"
   xmlns:svg="http://www.w3.org/2000/svg">
  <sodipodi:namedview
     id="namedview7"
     pagecolor="#ffffff"
     bordercolor="#666666"
     borderopacity="1.0"
     inkscape:pageshadow="2"
     inkscape:pageopacity="0.0"
     inkscape:pagecheckerboard="0"
     inkscape:document-units="mm"
     showgrid="false"
     inkscape:zoom="0.61580177"
     inkscape:cx="67.391817"
     inkscape:cy="346.70248"
     inkscape:window-width="1551"
     inkscape:window-height="1027"
     inkscape:window-x="74"
     inkscape:window-y="25"
     inkscape:window-maximized="0"
     inkscape:current-layer="layer1"
     inkscape:object-paths="true" />
  <defs
     id="defs2">
    <rect
       x="160.76602"
       y="196.4918"
       width="238.71318"
       height="102.30565"
       id="rect1384" />
    <rect
       x="365.77972"
       y="300.84058"
       width="113.97484"
       height="72.890884"
       id="rect22214" />
    <rect
       x="135.17947"
       y="788.54688"
       width="266.38306"
       height="96.746086"
       id="rect17144" />
    <rect
       x="425.41772"
       y="389.63492"
       width="192.16689"
       height="59.638"
       id="rect3738" />
    <rect
       x="613.60876"
       y="556.62134"
       width="314.09348"
       height="83.493202"
       id="rect18910" />
    <rect
       x="613.60876"
       y="518.18793"
       width="190.8416"
       height="67.589729"
       id="rect13616" />
    <rect
       x="481.07986"
       y="494.33276"
       width="132.52888"
       height="98.071381"
       id="rect1598" />
    <rect
       x="432.04419"
       y="498.30862"
       width="120.60129"
       height="53.011555"
       id="rect9793" />
    <rect
       x="125.90244"
       y="304.81644"
       width="258.4313"
       height="80.842621"
       id="rect1463" />
  </defs>
  <g
     inkscape:label="레이어 1"
     inkscape:groupmode="layer"
     id="layer1">
    <g
       aria-label="anseolab"
       transform="matrix(0.26458333,0,0,0.26458333,20.62352,0.85931333)"
       id="text1382"
       style="font-size:32px;line-height:1.25;font-family:'BM DoHyeon';-inkscape-font-specification:'BM DoHyeon, Normal';white-space:pre;shape-inside:url(#rect1384)">
      <path
         d="m 161.98162,212.73752 q 0.096,-1.28 0.544,-2.432 0.48,-1.152 1.34401,-2.048 0.89599,-0.896 2.20799,-1.408 1.312,-0.544 3.04,-0.544 h 2.4 q 1.792,0 3.136,0.608 1.344,0.576 2.208,1.568 0.896,0.992 1.344,2.24 0.448,1.248 0.448,2.528 v 13.408 h -11.36 q -1.344,0 -2.368,-0.512 -1.024,-0.48 -1.728,-1.312 -0.704,-0.832 -1.056,-1.952 -0.352,-1.12 -0.352,-2.368 0,-1.248 0.352,-2.336 0.384,-1.088 1.056,-1.856 0.704,-0.8 1.696,-1.248 1.024,-0.448 2.304,-0.448 h 6.848 v -0.416 q 0,-0.704 -0.128,-1.312 -0.096,-0.64 -0.448,-1.088 -0.31999,-0.448 -0.96,-0.704 -0.63999,-0.256 -1.696,-0.256 h -0.992 q -1.632,0 -2.304,0.48 -0.672,0.448 -0.928,1.408 z m 4.096,7.776 q 0,1.024 0.416,1.504 0.448,0.512 0.96,0.512 h 6.592 v -4.064 h -6.592 q -0.512,0 -0.96,0.512 -0.416,0.512 -0.416,1.536 z"
         id="path5010" />
      <path
         d="m 190.18862,210.84952 q -1.056,0 -1.728,0.256 -0.64,0.256 -1.024,0.704 -0.352,0.448 -0.48,1.088 -0.128,0.608 -0.128,1.312 v 12.448 h -4.704 v -20.352 h 4.704 v 0.512 q 1.376,-0.512 2.976,-0.512 h 2.08 q 1.76,0 3.10401,0.608 1.37599,0.576 2.27199,1.568 0.928,0.992 1.376,2.24 0.48,1.248 0.48,2.528 v 13.408 h -4.704 v -12.448 q 0,-0.704 -0.128,-1.312 -0.096,-0.64 -0.448,-1.088 -0.352,-0.448 -0.992,-0.704 -0.64,-0.256 -1.696,-0.256 z"
         id="path5012" />
      <path
         d="m 216.13462,210.24152 h -7.936 q -0.512,0 -0.864,0.192 -0.35199,0.192 -0.60799,0.512 -0.22401,0.32 -0.35201,0.704 -0.096,0.352 -0.096,0.736 0,0.768 0.48,1.376 0.512,0.608 1.24801,0.608 h 4.44799 q 1.408,0 2.464,0.48 1.056,0.48 1.76,1.344 0.704,0.832 1.056,1.984 0.352,1.152 0.352,2.464 v 0.128 q 0,1.312 -0.448,2.4 -0.416,1.088 -1.184,1.856 -0.736,0.768 -1.792,1.184 -1.024,0.448 -2.208,0.448 h -9.664 v -3.968 h 8.32 q 0.928,0 1.696,-0.512 0.768,-0.512 0.832,-1.568 v 0.032 q 0,-0.576 -0.224,-0.96 -0.224,-0.416 -0.576,-0.672 -0.352,-0.256 -0.8,-0.384 -0.448,-0.128 -0.928,-0.128 h -3.584 q -1.792,0 -2.944,-0.544 -1.12,-0.576 -1.792,-1.44 -0.64,-0.896 -0.896,-2.016 -0.224,-1.12 -0.224,-2.272 0,-1.216 0.352,-2.336 0.384,-1.12 1.056,-1.952 0.704,-0.864 1.728,-1.344 1.056,-0.512 2.4,-0.512 h 8.928 z"
         id="path5014" />
      <path
         d="m 220.67062,213.53752 q 0,-1.472 0.544,-2.784 0.576,-1.312 1.504,-2.304 0.928,-0.992 2.112,-1.568 1.184,-0.576 2.4,-0.576 h 4.54401 q 1.56799,0 2.78399,0.672 1.21601,0.64 2.048,1.664 0.832,1.024 1.28,2.304 0.448,1.248 0.448,2.432 v 5.152 h -12.96 v 1.088 q 0,1.44 0.8,2.048 0.83201,0.576 2.144,0.576 h 9.312 v 4.48 h -10.36799 q -1.34401,0 -2.56001,-0.544 -1.184,-0.512 -2.08,-1.44 -0.89599,-0.928 -1.44,-2.208 -0.512,-1.28 -0.512,-2.784 z m 4.768,1.216 h 8.256 v -0.224 q 0,-1.536 -0.8,-2.56 -0.8,-1.024 -2.14399,-1.024 h -2.49601 q -0.64,0 -1.152,0.288 -0.512,0.288 -0.896,0.8 -0.352,0.48 -0.576,1.152 -0.192,0.64 -0.192,1.344 z"
         id="path5016" />
      <path
         d="m 249.91262,206.30552 q 1.76,0 3.136,0.544 1.408,0.512 2.368,1.472 0.99201,0.96 1.504,2.336 0.51201,1.376 0.51201,3.072 v 5.472 q 0,1.696 -0.51201,3.072 -0.51199,1.376 -1.504,2.336 -0.96,0.992 -2.368,1.504 -1.376,0.544 -3.136,0.544 h -1.632 q -1.728,0 -3.136,-0.544 -1.376,-0.512 -2.368,-1.504 -0.96,-0.96 -1.472,-2.336 -0.512,-1.376 -0.512,-3.072 v -5.472 q 0,-1.696 0.512,-3.072 0.512,-1.376 1.472,-2.336 0.992,-0.96 2.368,-1.472 1.408,-0.544 3.136,-0.544 z m -1.632,4.576 q -1.248,0 -2.112,0.832 -0.832,0.832 -0.832,2.144 v 5.216 q 0,1.312 0.832,2.144 0.864,0.832 2.112,0.832 h 1.632 q 1.28,0 2.11201,-0.832 0.83199,-0.832 0.83199,-2.144 v -5.216 q 0,-1.312 -0.83199,-2.144 -0.83201,-0.832 -2.11201,-0.832 z"
         id="path5018" />
      <path
         d="m 260.59112,199.42552 h 4.704 v 27.232 h -4.704 z"
         id="path5020" />
      <path
         d="m 268.54412,212.73752 q 0.096,-1.28 0.544,-2.432 0.48,-1.152 1.344,-2.048 0.896,-0.896 2.208,-1.408 1.31201,-0.544 3.04,-0.544 h 2.4 q 1.792,0 3.136,0.608 1.34401,0.576 2.208,1.568 0.89601,0.992 1.344,2.24 0.448,1.248 0.448,2.528 v 13.408 h -11.35999 q -1.344,0 -2.368,-0.512 -1.024,-0.48 -1.728,-1.312 -0.70401,-0.832 -1.05601,-1.952 -0.352,-1.12 -0.352,-2.368 0,-1.248 0.352,-2.336 0.384,-1.088 1.05601,-1.856 0.704,-0.8 1.69599,-1.248 1.024,-0.448 2.30401,-0.448 h 6.84799 v -0.416 q 0,-0.704 -0.128,-1.312 -0.096,-0.64 -0.448,-1.088 -0.31999,-0.448 -0.95999,-0.704 -0.64001,-0.256 -1.69601,-0.256 h -0.992 q -1.632,0 -2.304,0.48 -0.672,0.448 -0.928,1.408 z m 4.096,7.776 q 0,1.024 0.416,1.504 0.448,0.512 0.96,0.512 h 6.592 v -4.064 h -6.592 q -0.512,0 -0.96,0.512 -0.416,0.512 -0.416,1.536 z"
         id="path5022" />
      <path
         d="m 297.19912,206.30552 q 1.728,0 3.10401,0.544 1.40799,0.512 2.368,1.472 0.99199,0.96 1.50399,2.336 0.54401,1.376 0.54401,3.072 v 5.472 q 0,1.696 -0.54401,3.072 -0.512,1.376 -1.50399,2.336 -0.96001,0.992 -2.368,1.504 -1.37601,0.544 -3.10401,0.544 h -1.632 q -1.72799,0 -3.136,-0.544 -1.376,-0.512 -2.36799,-1.504 -0.96001,-0.96 -1.47201,-2.336 -0.512,-1.376 -0.512,-3.072 v -5.472 -0.32 -13.984 h 4.704 v 7.392 q 1.47201,-0.512 3.136,-0.512 z m -1.632,4.576 q -1.248,0 -2.01599,0.8 -0.736,0.8 -0.76801,2.048 v 5.344 q 0,1.312 0.736,2.144 0.768,0.832 2.048,0.832 h 1.632 q 1.28,0 2.08001,-0.832 0.79999,-0.832 0.79999,-2.144 v -5.216 q 0,-1.312 -0.79999,-2.144 -0.80001,-0.832 -2.08001,-0.832 z"
         id="path5024" />
    </g>
    <text
       xml:space="preserve"
       transform="scale(0.26458333)"
       id="text9791"
       style="font-style:normal;font-weight:normal;font-size:40px;line-height:1.25;font-family:sans-serif;white-space:pre;shape-inside:url(#rect9793);fill:#000000;fill-opacity:1;stroke:none" />
    <text
       xml:space="preserve"
       transform="scale(0.26458333)"
       id="text18908"
       style="font-style:normal;font-weight:normal;font-size:40px;line-height:1.25;font-family:sans-serif;white-space:pre;shape-inside:url(#rect18910);fill:#000000;fill-opacity:1;stroke:none" />
  </g>
</svg>
