<?xml version="1.0" ?><svg id="Layer_1" style="enable-background:new 0 0 32 32;" version="1.1" viewBox="0 0 32 32" xml:space="preserve" xmlns="http://www.w3.org/2000/svg" xmlns:xlink="http://www.w3.org/1999/xlink"><style type="text/css">
	.st0{fill:#6FA7AB;}
	.st1{fill:#B9F3F8;}
</style><g id="Diamond"><g><path class="st0" d="M29.78,10.899l-2.352-4.904c-0.011-0.033-0.033-0.055-0.044-0.089c-0.011-0.011-0.011-0.022-0.022-0.033    c-0.399-0.688-1.132-1.132-1.942-1.132h-6.28l3.606,7.489h7.223C30.046,11.787,29.979,11.321,29.78,10.899z"/><path class="st1" d="M16.488,27.209c0.442-0.097,0.866-0.331,1.165-0.688L29.436,13.34c0.011-0.011,0.011-0.011,0.022-0.022    c0.011-0.011,0.022-0.022,0.022-0.033c0.255-0.311,0.422-0.677,0.488-1.054h-7.223L16.488,27.209z"/><polygon class="st1" points="19.14,4.742 12.86,4.742 9.254,12.231 22.746,12.231   "/><path class="st0" d="M22.746,12.231L22.746,12.231H9.254l0,0l6.258,14.978c0.322,0.067,0.655,0.067,0.976,0L22.746,12.231z"/><path class="st1" d="M9.254,12.231H2.032c0.067,0.388,0.244,0.766,0.51,1.087c0.011,0.011,0.011,0.011,0.022,0.022l11.783,13.181    c0.299,0.357,0.723,0.591,1.165,0.688L9.254,12.231z"/><path class="st0" d="M12.86,4.741H6.58c-0.821,0-1.564,0.455-1.964,1.165C4.606,5.94,4.583,5.962,4.572,5.995L2.22,10.899    c-0.2,0.422-0.266,0.888-0.189,1.331h7.223L12.86,4.741z"/></g></g></svg>