<?xml version="1.0" encoding="UTF-8" standalone="no"?>
<!-- Created with Inkscape (http://www.inkscape.org/) -->

<svg
   width="114mm"
   height="81mm"
   viewBox="0 0 114 81"
   version="1.1"
   id="svg5"
   sodipodi:docname="logo.svg"
   inkscape:version="1.1.2 (b8e25be8, 2022-02-05)"
   xmlns:inkscape="http://www.inkscape.org/namespaces/inkscape"
   xmlns:sodipodi="http://sodipodi.sourceforge.net/DTD/sodipodi-0.dtd"
   xmlns="http://www.w3.org/2000/svg"
   xmlns:svg="http://www.w3.org/2000/svg">
  <sodipodi:namedview
     id="namedview7"
     pagecolor="#ffffff"
     bordercolor="#666666"
     borderopacity="1.0"
     inkscape:pageshadow="2"
     inkscape:pageopacity="0.0"
     inkscape:pagecheckerboard="0"
     inkscape:document-units="mm"
     showgrid="false"
     units="mm"
     inkscape:zoom="1.2003863"
     inkscape:cx="243.67156"
     inkscape:cy="151.20133"
     inkscape:window-width="1313"
     inkscape:window-height="1011"
     inkscape:window-x="253"
     inkscape:window-y="25"
     inkscape:window-maximized="0"
     inkscape:current-layer="layer1" />
  <defs
     id="defs2" />
  <g
     inkscape:label="레이어 1"
     inkscape:groupmode="layer"
     id="layer1">
    <g
       id="g25922"
       transform="matrix(0.0316519,0,0,0.0291882,49.235378,26.368253)">
      <path
         id="polygon25906"
         style="fill:#a12525"
         d="m 172.069,223.71 -98.458,211.045 86.52,13.917 66.255,57.358 98.458,-211.049 z" />
      <path
         id="polygon25908"
         style="fill:#831919"
         d="m 334.236,214.721 98.462,211.049 -86.516,13.909 -66.26,57.359 -98.461,-211.049 z" />
      <path
         d="m 237.401,17.449 c 10.561,7.408 27.839,7.408 38.403,0 l 8.519,-5.969 c 10.557,-7.408 24.358,-4.255 30.655,7 l 5.083,9.067 c 6.297,11.255 21.87,18.755 34.606,16.667 l 10.248,-1.685 c 12.729,-2.092 23.792,6.734 24.591,19.608 l 0.641,10.374 c 0.79,12.877 11.571,26.387 23.95,30.027 l 9.966,2.937 c 12.378,3.639 18.518,16.388 13.643,28.333 l -3.918,9.625 c -4.866,11.946 -1.023,28.796 8.543,37.443 l 7.712,6.971 c 9.575,8.647 9.575,22.797 0,31.449 l -7.712,6.967 c -9.566,8.652 -13.409,25.501 -8.543,37.448 l 3.918,9.624 c 4.875,11.946 -1.265,24.69 -13.643,28.334 l -9.966,2.929 c -12.379,3.644 -23.16,17.153 -23.95,30.031 l -0.641,10.382 c -0.799,12.869 -11.862,21.695 -24.591,19.599 l -10.248,-1.681 c -12.736,-2.096 -28.31,5.407 -34.606,16.663 l -5.083,9.076 c -6.297,11.247 -20.099,14.399 -30.655,6.987 l -8.519,-5.956 c -10.564,-7.412 -27.843,-7.412 -38.403,0 l -8.51,5.956 c -10.561,7.412 -24.362,4.26 -30.663,-6.987 l -5.079,-9.076 c -6.302,-11.256 -21.875,-18.759 -34.602,-16.663 l -10.257,1.681 c -12.732,2.097 -23.792,-6.729 -24.586,-19.599 l -0.641,-10.382 c -0.794,-12.878 -11.571,-26.388 -23.946,-30.031 l -9.974,-2.929 C 76.769,298.025 70.625,285.281 75.496,273.335 l 3.927,-9.624 c 4.871,-11.946 1.023,-28.796 -8.548,-37.448 l -7.716,-6.967 c -9.566,-8.652 -9.566,-22.802 0,-31.449 l 7.716,-6.971 c 9.571,-8.647 13.418,-25.498 8.548,-37.443 l -3.927,-9.625 c -4.871,-11.946 1.273,-24.694 13.647,-28.333 l 9.974,-2.937 c 12.375,-3.64 23.151,-17.149 23.946,-30.027 l 0.641,-10.374 c 0.794,-12.874 11.854,-21.7 24.586,-19.608 l 10.257,1.685 c 12.728,2.088 28.3,-5.411 34.602,-16.667 l 5.079,-9.067 c 6.301,-11.255 20.103,-14.408 30.663,-7 z"
         fill="#b99b3d"
         id="path25910" />
      <path
         d="m 237.401,36.291 c 10.561,7.408 27.839,7.408 38.403,0 l 8.519,-5.969 c 10.557,-7.408 24.358,-4.255 30.655,7 l 5.083,9.068 c 6.297,11.255 21.87,18.754 34.606,16.667 l 10.248,-1.685 c 12.729,-2.092 23.792,6.734 24.591,19.607 l 0.641,10.374 c 0.79,12.878 11.571,26.388 23.95,30.027 l 9.966,2.937 c 12.378,3.64 18.518,16.388 13.643,28.334 l -3.918,9.625 c -4.866,11.946 -1.023,28.795 8.543,37.443 l 7.712,6.971 c 9.575,8.647 9.575,22.798 0,31.449 l -7.712,6.967 c -9.566,8.651 -13.409,25.501 -8.543,37.447 l 3.918,9.616 c 4.875,11.946 -1.265,24.707 -13.643,28.343 l -9.966,2.937 c -12.379,3.635 -23.16,17.153 -23.95,30.022 l -0.641,10.373 c -0.799,12.878 -11.862,21.696 -24.591,19.616 l -10.248,-1.688 c -12.736,-2.088 -28.31,5.407 -34.606,16.662 l -5.083,9.067 c -6.297,11.264 -20.099,14.408 -30.655,7.005 l -8.519,-5.973 c -10.564,-7.404 -27.843,-7.404 -38.403,0 l -8.51,5.973 c -10.561,7.403 -24.362,4.259 -30.663,-7.005 l -5.079,-9.067 c -6.302,-11.255 -21.875,-18.75 -34.602,-16.662 l -10.257,1.688 c -12.732,2.08 -23.792,-6.738 -24.586,-19.616 l -0.641,-10.373 c -0.794,-12.869 -11.571,-26.388 -23.946,-30.022 l -9.974,-2.937 C 76.769,316.876 70.625,304.116 75.496,292.169 l 3.927,-9.616 c 4.871,-11.946 1.023,-28.796 -8.548,-37.447 l -7.716,-6.967 c -9.566,-8.651 -9.566,-22.802 0,-31.449 l 7.716,-6.971 c 9.571,-8.647 13.418,-25.497 8.548,-37.443 l -3.927,-9.625 c -4.871,-11.946 1.273,-24.694 13.647,-28.334 l 9.974,-2.937 c 12.375,-3.639 23.151,-17.149 23.946,-30.027 l 0.641,-10.374 c 0.794,-12.873 11.854,-21.7 24.586,-19.607 l 10.257,1.685 c 12.728,2.088 28.3,-5.411 34.602,-16.667 l 5.079,-9.068 c 6.301,-11.255 20.103,-14.408 30.663,-7 z"
         fill="#efc84a"
         id="path25912" />
      <g
         id="g25918">
        <path
           d="m 114.303,222.412 c 0,-78.592 63.714,-142.302 142.302,-142.302 78.596,0 142.302,63.709 142.302,142.302 0,78.593 -63.707,142.298 -142.302,142.298 -78.588,0 -142.302,-63.705 -142.302,-142.298 z"
           fill="#deb944"
           id="path25914" />
        <path
           d="m 256.605,351.292 c -76.342,0 -138.633,-60.12 -142.14,-135.593 -0.104,2.226 -0.162,4.463 -0.162,6.713 0,78.592 63.714,142.297 142.302,142.297 78.596,0 142.302,-63.705 142.302,-142.297 0,-2.25 -0.059,-4.488 -0.166,-6.713 -3.495,75.473 -65.794,135.593 -142.136,135.593 z"
           fill="#b99b3d"
           id="path25916" />
      </g>
      <path
         d="m 256.605,93.529 c 76.342,0 138.642,60.116 142.136,135.592 0.107,-2.225 0.166,-4.458 0.166,-6.709 0,-78.592 -63.706,-142.302 -142.302,-142.302 -78.588,0 -142.302,63.709 -142.302,142.302 0,2.25 0.058,4.484 0.162,6.709 3.506,-75.476 65.798,-135.592 142.14,-135.592 z"
         fill="#ffdc7b"
         id="path25920" />
    </g>
    <g
       aria-label="로또"
       transform="matrix(0.27226705,0,0,0.26458333,-10.184829,-41.269515)"
       id="text1461"
       style="font-size:63.0905px;line-height:1.25;font-family:'BM HANNA Pro';-inkscape-font-specification:'BM HANNA Pro, Normal';white-space:pre;shape-inside:url(#rect1463);fill:#0d0f14">
      <path
         d="m 162.93647,332.38695 v -4.29015 h -29.9049 v -7.25541 h 38.5483 v 17.34989 h -29.9049 v 4.10088 h 29.9049 v 5.80433 h -38.5483 v -15.70954 z m 13.31209,32.17616 h -47.8226 v -7.19232 h 19.62115 v -6.6245 h 8.01249 v 6.6245 h 20.18896 z"
         id="path4653" />
      <path
         d="m 211.38307,341.21962 h 12.11338 v 6.87687 h -37.8543 v -27.63364 h 37.8543 v 7.57086 h -12.11338 z m -9.90521,9.46358 h 8.0125 v 6.6245 h 19.74732 v 7.25541 H 181.2889 v -7.25541 h 20.18896 z m -7.38159,-22.64949 v 13.18591 h 8.83267 v -13.18591 z"
         id="path4655" />
    </g>
    <g
       aria-label="의 "
       id="text12021"
       style="font-size:10.5833px;line-height:1.25;fill:#0d0f14;stroke-width:0.264583"
       transform="translate(-54.593672,-83.480387)">
      <path
         d="m 116.22283,139.7435 h -1.69333 v -2.88996 q -0.41769,0.37253 -0.9144,0.63218 -0.49671,0.25964 -1.02729,0.44026 -0.53058,0.16934 -1.07245,0.27094 -0.54186,0.1016 -1.03858,0.14675 -1.19662,0.12418 -2.39324,0.0226 v -1.55787 q 0.62089,0.12418 1.28693,0.12418 0.67734,-0.0113 1.33209,-0.0903 0.66605,-0.0903 1.27565,-0.22578 0.62089,-0.14676 1.1176,-0.29351 0.508,-0.15805 0.86924,-0.28222 0.37254,-0.13547 0.54187,-0.2032 v -5.5993 h 1.71591 z m -4.69618,-9.2569 q 0.34996,0 0.63218,0.12418 0.28222,0.11288 0.48542,0.32737 0.2032,0.21449 0.3048,0.49671 0.11289,0.28223 0.11289,0.59832 v 1.53529 q 0,0.7112 -0.44027,1.12889 -0.44026,0.4064 -1.2192,0.4064 h -1.35466 q -0.3048,0 -0.58703,-0.1016 -0.28222,-0.1016 -0.508,-0.28223 -0.21449,-0.19191 -0.34995,-0.45155 -0.12418,-0.25965 -0.12418,-0.58702 v -1.64818 q 0,-0.31609 0.11289,-0.59832 0.12418,-0.28222 0.32738,-0.49671 0.21448,-0.21449 0.49671,-0.32737 0.29351,-0.12418 0.63218,-0.12418 z m 0.16934,1.84009 q 0,-0.27094 -0.19192,-0.45156 -0.18062,-0.19191 -0.46284,-0.19191 h -0.48542 q -0.28223,0 -0.49672,0.19191 -0.21448,0.18062 -0.21448,0.45156 v 0.93698 q 0,0.28222 0.21448,0.47413 0.21449,0.18062 0.49672,0.18062 h 0.48542 q 0.28222,0 0.46284,-0.18062 0.19192,-0.19191 0.19192,-0.47413 z"
         style="font-size:11.2889px;font-family:'BM HANNA Pro';-inkscape-font-specification:'BM HANNA Pro, Normal'"
         id="path4658" />
    </g>
    <g
       aria-label="민족"
       transform="matrix(0.26458333,0,0,0.26458333,-64.487598,-91.649668)"
       id="text1596"
       style="font-size:64px;line-height:1.25;font-family:'BM HANNA Pro';-inkscape-font-specification:'BM HANNA Pro, Normal';white-space:pre;shape-inside:url(#rect1598);fill:#0d0f14">
      <path
         d="m 511.67208,536.12403 h -26.752 v -25.984 h 26.752 z m -20.224,6.08 h 7.872 v 10.304 h 29.824 v 7.552 h -37.696 z m 28.864,-1.088 v -34.24 h 8.192 v 34.24 z m -27.776,-23.616 v 11.392 h 11.52 v -11.392 z"
         id="path4661" />
      <path
         d="m 579.22708,550.26803 q 0,2.432 -0.448,4.416 -0.384,1.984 -0.896,3.456 -0.32,0.896 -0.64,1.664 -0.32,0.768 -0.64,1.472 h -7.872 q 1.088,-2.112 1.664,-4.16 0.576,-1.984 0.832,-3.52 0.256,-1.792 0.192,-3.392 h -30.784 v -7.36 h 38.592 z m 4.864,-11.584 h -48.576 v -7.36 h 19.904 v -6.592 h 8.896 v 6.592 h 19.776 z m -6.08,-31.808 v 6.464 h -13.312 q 1.152,1.792 2.688,3.2 1.6,1.408 3.328,2.496 1.728,1.088 3.52,1.856 1.856,0.768 3.52,1.216 v 5.824 q -6.4,-0.704 -10.816,-3.2 -4.352,-2.496 -7.552,-6.144 -1.664,2.048 -3.968,3.712 -2.304,1.6 -4.864,2.88 -2.496,1.28 -5.056,2.176 -2.496,0.896 -4.544,1.408 v -6.336 q 2.176,-0.704 4.352,-1.856 2.176,-1.216 3.904,-2.496 1.792,-1.28 2.944,-2.56 1.216,-1.28 1.472,-2.176 h -12.928 v -6.464 z"
         id="path4663" />
    </g>
    <g
       aria-label="대한민국"
       transform="matrix(0.26458333,0,0,0.26458333,-132.83454,-107.26378)"
       id="text13614"
       style="font-weight:bold;font-size:21.3333px;line-height:1.25;font-family:Pretendard;-inkscape-font-specification:'Pretendard, Bold';white-space:pre;shape-inside:url(#rect13616);fill:#bebbd3">
      <path
         d="m 630.56768,520.89687 h -2.52083 v 7.31248 h -1.83333 v -6.99998 h -2.43749 v 17.72913 h 2.43749 v -8.60415 h 1.83333 v 9.52082 h 2.52083 z m -15.85414,14.66664 h 1.3125 c 2.49999,-0.0104 4.52082,-0.0833 6.83332,-0.52083 l -0.1875,-2.16667 c -1.83333,0.32292 -3.45833,0.42709 -5.29166,0.45834 v -8.10416 h 4.39583 v -2.14583 h -7.06249 z"
         id="path4666" />
      <path
         d="m 647.67182,520.9177 h -2.66666 v 14.14581 h 2.66666 v -6.16666 h 2.5625 v -2.16666 h -2.5625 z m -15.04164,4.08333 h 11.24998 v -2.10417 h -4.29166 v -2.02083 h -2.64583 v 2.02083 h -4.31249 z m 0.91666,4.33332 c 0,2.1875 1.94792,3.625 4.70833,3.625 2.74999,0 4.66666,-1.4375 4.66666,-3.625 0,-2.19791 -1.91667,-3.66666 -4.66666,-3.66666 -2.76041,0 -4.70833,1.46875 -4.70833,3.66666 z m 1.83333,10.18749 h 12.97915 v -2.125 H 638.026 v -3.41666 h -2.64583 z m 0.77084,-10.18749 c -0.0104,-1.05208 0.83333,-1.63541 2.10416,-1.64583 1.28125,0.0104 2.14583,0.59375 2.14583,1.64583 0,1.04167 -0.86458,1.60417 -2.14583,1.60417 -1.27083,0 -2.11458,-0.5625 -2.10416,-1.60417 z"
         id="path4668" />
      <path
         d="m 661.31763,522.4177 h -9.27082 v 9.14582 h 9.27082 z m -7.06249,17.0208 h 13.20832 v -2.14583 h -10.52082 v -4.14582 h -2.6875 z m 0.41667,-9.97915 v -4.93749 h 3.99999 v 4.93749 z m 9.62498,4.9375 h 2.66667 V 520.9177 h -2.66667 z"
         id="path4670" />
      <path
         d="m 684.83843,521.7302 h -13.16665 v 2.10416 h 10.52082 c -0.0208,1.25 -0.0729,2.63541 -0.42709,4.41666 h -12.21873 v 2.125 h 7.31249 v 2.72916 h -5.56249 v 2.08333 h 10.89582 v 4.66666 h 2.66666 v -6.74999 h -5.33333 v -2.72916 h 7.37499 v -2.125 h -2.44791 c 0.39583,-2.04166 0.39583,-3.64583 0.38542,-5.04166 z"
         id="path4672" />
    </g>
    <g
       aria-label="로또어플 "
       transform="matrix(0.26458333,0,0,0.26458333,-47.185462,-73.256386)"
       id="text3736"
       style="font-weight:bold;font-size:21.3333px;line-height:1.25;font-family:Pretendard;-inkscape-font-specification:'Pretendard, Bold';white-space:pre;shape-inside:url(#rect3738);fill:#bebbd3">
      <path
         d="m 443.33461,407.01078 h -7.39582 v -2.85417 h 5.83332 v -2.16666 h -11.12498 v -2.125 h 10.68748 v -6.29165 h -13.37498 v 2.12499 h 10.74998 v 2.08333 h -10.72915 v 6.37499 h 5.3125 v 2.85417 h -7.31249 v 2.18749 h 17.35414 z"
         id="path4675" />
      <path
         d="m 460.56375,400.48995 h -4.20833 v -4.43749 h 4.06249 v -2.125 h -6.72915 v 8.66666 h 6.87499 z m -16.12498,8.60416 h 17.35414 v -2.14583 h -7.43749 v -3.52083 h -2.62499 v 3.52083 h -7.29166 z m 1.33333,-6.49999 h 1.20833 c 2.26042,0.0104 3.90625,-0.0208 5.83333,-0.41667 l -0.1875,-2.16666 c -1.41667,0.27083 -2.69791,0.38541 -4.1875,0.42708 v -4.38541 h 4.0625 v -2.125 h -6.72916 z"
         id="path4677" />
      <path
         d="m 468.12623,393.67746 c -2.87499,0 -4.93749,2.61458 -4.91666,6.74999 -0.0208,4.16666 2.04167,6.77083 4.91666,6.77083 2.64583,0 4.60416,-2.22917 4.88541,-5.875 h 3.26041 v 10.02082 h 2.625 v -18.99997 h -2.625 v 6.85416 h -3.29166 c -0.375,-3.41666 -2.29166,-5.52083 -4.85416,-5.52083 z m -2.37499,6.74999 c -0.0104,-2.81249 0.95833,-4.35416 2.37499,-4.35416 1.42708,0 2.375,1.54167 2.375,4.35416 0,2.82291 -0.94792,4.36458 -2.375,4.35416 -1.41666,0.0104 -2.38541,-1.53125 -2.37499,-4.35416 z"
         id="path4679" />
      <path
         d="m 497.10535,392.86496 h -14.22914 v 1.97917 h 2.45833 v 2.49999 h -2.33333 v 1.97917 h 13.97914 v -1.97917 h -2.35416 v -2.49999 h 2.47916 z m -15.74997,9.54166 h 17.29164 v -2.08333 h -17.29164 z m 1.99999,2.99999 h 10.56249 v 0.95833 h -10.54165 v 4.8125 h 13.66664 v -1.95833 h -11.06248 v -1.04167 h 10.56248 v -4.68749 h -13.18748 z m 4.64583,-8.06249 v -2.49999 h 3.95833 v 2.49999 z"
         id="path4681" />
    </g>
    <g
       aria-label="꼴등"
       transform="matrix(0.26458333,0,0,0.26458333,-43.885962,-50.351338)"
       id="text22212"
       style="font-size:26.6667px;line-height:1.25;font-family:'BM YEONSUNG';-inkscape-font-specification:'BM YEONSUNG, Normal';white-space:pre;shape-inside:url(#rect22214);fill:#ffffff">
      <path
         d="m 372.0193,310.61763 q -0.37333,0.72 -0.85333,1.17334 -0.24,0.21333 -0.48,0.34667 -0.21333,0.10666 -0.42667,0.0533 -0.10666,-0.0533 -0.08,-0.26667 0.0267,-0.21333 0.10667,-0.58667 0.08,-0.37333 0.16,-1.06666 0.08,-0.69334 0.10667,-1.44001 0.0533,-0.74666 0.0533,-1.44 0,-0.69333 -0.08,-1.06666 -0.53333,0.13333 -1.06667,0.29333 -0.53333,0.16 -1.01333,0.21333 -0.13334,0 -0.48,-0.10666 -0.32,-0.10667 -0.66667,-0.26667 -0.32,-0.16 -0.58667,-0.34667 -0.26667,-0.18667 -0.26667,-0.34667 0,-0.29333 0.64001,-0.58666 0.66666,-0.29334 1.49333,-0.53334 0.85333,-0.24 1.65334,-0.37333 0.82666,-0.13333 1.14666,-0.10667 0.16,0.0267 0.42667,0.16 0.29333,0.10667 0.56,0.29334 0.29334,0.18666 0.50667,0.4 0.24,0.21333 0.29333,0.42666 0,0.69334 -0.10666,1.62667 -0.10667,0.90667 -0.37334,1.84001 0.0533,0.0267 0.16,0.0267 0.18667,0.0267 0.48,0.18667 0.32,0.16 0.64,0.37333 0.32,0.18667 0.61334,0.4 0.29333,0.18667 0.45333,0.34667 0.24,0.21333 0.26667,0.45333 0.0533,0.21334 0.0267,0.58667 -0.0267,0.42667 -0.10667,1.14667 -0.0533,0.72 -0.16,1.46667 1.76,-0.0533 3.28,-0.0267 1.54667,0.0267 2.37334,0.24 0.16,0.0267 0.42667,0.26667 0.26666,0.21333 0.48,0.50667 0.24,0.26666 0.37333,0.56 0.13333,0.26666 0.08,0.42666 -0.0533,0.13334 -0.26667,0.24 -0.21333,0.08 -0.48,0.16 -0.26666,0.0533 -0.56,0.08 -0.26666,0.0267 -0.45333,0 -1.41334,-0.18666 -3.04001,-0.26666 -1.6,-0.10667 -3.28,-0.10667 -1.68,-0.0267 -3.38667,0.0533 -1.68,0.08 -3.22667,0.21334 -0.37333,0.0533 -0.64,0.0267 -0.24,-0.0533 -0.26667,-0.13333 -0.0533,-0.13333 0.0533,-0.42667 0.13334,-0.29333 0.26667,-0.42666 0.18667,-0.16 0.53334,-0.29334 0.37333,-0.16 0.77333,-0.29333 0.42667,-0.13333 0.82667,-0.21333 0.4,-0.10667 0.66667,-0.16 0.69333,-0.10667 1.54666,-0.18667 0.88,-0.08 1.86667,-0.13334 -0.0533,-0.69333 -0.08,-1.38666 -0.0267,-0.69334 -0.0267,-1.09334 z m 4.10668,10.72002 q 0.0267,-0.16 0.0533,-0.45334 0.0267,-0.29333 0.0267,-0.58666 0.0267,-0.32 0.0267,-0.58667 0,-0.26667 0,-0.4 -0.66666,0.0533 -1.57333,0.16 -0.88,0.10667 -1.76,0.24 -0.37334,0.0533 -0.72001,0.08 -0.32,0.0267 -0.69333,-0.32 -0.10667,-0.10667 -0.29333,-0.29334 -0.16,-0.18666 -0.29334,-0.37333 -0.13333,-0.18667 -0.24,-0.37333 -0.08,-0.18667 -0.0267,-0.29334 0.0267,-0.08 0.21333,-0.10666 0.18667,-0.0533 0.45333,-0.0533 0.26667,-0.0267 0.53334,-0.0267 0.26666,0 0.48,0 1.09333,-0.0533 2.21333,-0.18667 1.12001,-0.13333 2.21334,-0.34667 0.16,-0.0267 0.48,0.10667 0.32,0.13333 0.61334,0.34667 0.32,0.21333 0.53333,0.50666 0.21333,0.29334 0.21333,0.58667 0,0.21333 -0.10666,0.53334 -0.10667,0.29333 -0.29334,0.64 -0.16,0.34666 -0.4,0.66666 -0.24,0.32 -0.50667,0.56 0.0533,0.0267 0.08,0.0533 0.0533,0.0267 0.10667,0.0533 0.21334,0.18667 0.4,0.48 0.21334,0.32 0.16,0.48 -0.0533,0.18667 -0.37333,0.26667 -0.32,0.10667 -0.85334,0.18667 -0.98666,0.13333 -1.81333,0.18666 -0.8,0.0533 -1.81334,0.16 0.26667,0.4 0.29334,0.82667 0.0267,0.45333 0.0533,0.98667 1.46667,-0.0533 2.74667,-0.13333 1.28,-0.0533 2.85334,-0.10667 0.32,0 0.64,0.10667 0.34666,0.10666 0.61333,0.24 0.26667,0.16 0.42667,0.29333 0.16,0.16 0.16,0.26667 0,0.29333 -0.53333,0.53333 -0.50667,0.26667 -1.12001,0.32 -1.52,0.18667 -3.52,0.34667 -1.97334,0.16 -3.89334,0.21333 -0.53333,0.0267 -0.77333,-0.21333 -0.21334,-0.24 -0.24,-0.50667 -0.0533,-0.37333 -0.0533,-0.82667 0.0267,-0.42666 0.24,-0.69333 0.24,-0.29334 0.32,-0.85334 0.10667,-0.56 -0.10666,-1.09333 -0.10667,-0.0533 -0.24,-0.18667 -0.13334,-0.13333 -0.24,-0.32 -0.10667,-0.16 -0.16,-0.34666 -0.0533,-0.18667 0,-0.34667 0.0267,-0.08 0.16,-0.10667 0.16,-0.0533 0.64,-0.08 z m 2.18667,-16.42669 q 0.16,0.0267 0.42666,0.16 0.29334,0.10667 0.58667,0.29333 0.29333,0.18667 0.53333,0.4 0.24,0.21334 0.29334,0.42667 0,0.64 -0.13334,1.38667 -0.10666,0.72 -0.34666,1.44 -0.21334,0.72 -0.53334,1.38667 -0.32,0.64 -0.72,1.14667 -0.29333,0.4 -0.72,0.72 -0.42667,0.32 -0.66667,0.21333 -0.26666,-0.10666 -0.08,-0.77333 0.16,-0.61334 0.29334,-1.25334 0.16,-0.66666 0.24,-1.28 0.10667,-0.61333 0.13333,-1.14667 0.0533,-0.56 0.0533,-0.96 -0.26667,0.0533 -0.48001,0.13334 -0.21333,0.0533 -0.48,0.10666 -0.24,0.0533 -0.56,0.13334 -0.29333,0.0533 -0.77333,0.13333 -0.16,0.0267 -0.48,-0.0533 -0.32,-0.10667 -0.66667,-0.26667 -0.34667,-0.18667 -0.61333,-0.37333 -0.24,-0.21334 -0.24,-0.42667 0,-0.24 0.66666,-0.50667 0.66667,-0.26667 1.52001,-0.50667 0.85333,-0.24 1.65333,-0.4 0.8,-0.16 1.09334,-0.13333 z"
         id="path4684" />
      <path
         d="m 386.76974,306.99096 q -0.0267,-0.0267 -0.29333,-0.0267 -0.26667,-0.0267 -0.32,-0.08 -0.18667,-0.13334 -0.56001,-0.48 -0.37333,-0.37334 -0.50666,-0.66667 -0.0533,-0.08 0.08,-0.24 0.13333,-0.16 0.32,-0.29334 0.21333,-0.16 0.4,-0.26666 0.21333,-0.10667 0.26667,-0.10667 0.50666,0.0533 0.77333,0.0533 0.26667,0 0.48,0 0.21333,0 0.45333,-0.0267 0.26667,-0.0267 0.72001,-0.08 1.44,-0.13334 2.24,-0.32 0.82667,-0.18667 1.04,-0.18667 0.58667,0 1.04,0.21333 0.48,0.18667 0.48,0.93334 0,0.24 -0.16,0.45333 -0.13333,0.21333 -0.34667,0.4 -0.18666,0.18667 -0.4,0.32 -0.21333,0.10667 -0.37333,0.16 -0.53333,0.18667 -1.33334,0.34667 -0.77333,0.13333 -2.24,0.16 0.29334,0.53333 0.42667,1.17333 0.13333,0.61334 0.16,1.38667 0.26667,-0.0533 0.82667,-0.13333 0.58666,-0.08 1.22667,-0.18667 0.64,-0.10666 1.22666,-0.18666 0.61334,-0.08 0.93334,-0.13334 0.37333,-0.0533 0.93333,0 0.58667,0.0267 0.93334,0.10667 0.13333,0.0267 0.24,0.16 0.13333,0.13333 0.21333,0.32 0.08,0.16 0.10667,0.34667 0.0267,0.16 0,0.26666 -0.0533,0.16 -0.21334,0.37334 -0.13333,0.18666 -0.34666,0.37333 -0.18667,0.16 -0.42667,0.29333 -0.21333,0.10667 -0.4,0.08 -1.46667,-0.13333 -3.06667,-0.0267 -1.57334,0.10667 -3.25334,0.50667 -0.13333,0.0267 -0.32,-0.0533 -0.18667,-0.08 -0.37333,-0.21333 -0.18667,-0.16 -0.34667,-0.29334 -0.16,-0.16 -0.24,-0.29333 -0.10667,-0.18667 -0.0267,-0.34667 0.13334,-0.34666 0.16,-0.8 0.0533,-0.45333 0.0267,-0.90666 -0.0267,-0.48001 -0.13333,-0.93334 -0.10667,-0.48 -0.26667,-0.85333 -0.0267,-0.0533 -0.0267,-0.10667 0,-0.0533 0.10667,-0.10667 z m -3.84001,8.74668 q -0.08,-0.18667 -0.0533,-0.24 0.0533,-0.0533 0.16,-0.10667 0.50667,-0.24 1.28,-0.42666 0.8,-0.18667 1.70667,-0.32 0.93334,-0.16 1.94667,-0.26667 1.01334,-0.10667 1.97334,-0.16 0.98666,-0.08 1.81333,-0.10667 0.85334,-0.0267 1.46667,-0.0267 0.42667,0 1.04,0.0267 0.64,0 1.28,0.08 0.64,0.08 1.20001,0.24 0.58666,0.16 0.90666,0.45334 0.10667,0.24 0.10667,0.61333 0,0.24 -0.08,0.32 -0.08,0.0533 -0.18667,0.10667 -0.34666,0.13333 -0.77333,0.29333 -0.4,0.16 -0.77334,0.29333 -0.26666,0.08 -0.4,0.08 -0.13333,0 -0.42666,-0.0533 -0.77334,-0.13333 -2.05334,-0.13333 -1.28,-0.0267 -2.72,0.0267 -1.41334,0.0267 -2.80001,0.08 -1.36,0.0533 -2.29333,0.08 -0.16,0 -0.74667,-0.0267 -0.56,-0.0267 -0.96,-0.08 -0.13333,-0.0267 -0.24,-0.0533 -0.10667,-0.0267 -0.18667,-0.24 z m 4.16001,6.32001 q 0,-0.82667 0.32,-1.54667 0.34667,-0.72 0.93333,-1.25334 0.61334,-0.56 1.44001,-0.88 0.85333,-0.34666 1.86667,-0.4 1.06666,-0.0533 1.84,0.34667 0.77333,0.4 1.36,1.33334 0.90667,1.38666 0.34667,3.04 -0.48,1.49333 -1.54667,2.26667 -1.06667,0.77333 -2.61334,0.77333 -1.65333,0 -2.74667,-0.98666 -1.09333,-0.96001 -1.2,-2.69334 z m 2.05334,-0.48 q -0.10667,0.42666 0.0533,0.82667 0.18667,0.4 0.50667,0.69333 0.34666,0.32 0.8,0.48 0.48,0.18667 0.93333,0.13333 0.58667,-0.0533 1.09334,-0.48 0.50666,-0.4 0.8,-1.01333 0.34666,-0.74667 -0.0533,-1.44 -0.4,-0.72 -1.22666,-0.93334 -0.45334,-0.10666 -0.93334,-0.0267 -0.45333,0.08 -0.88,0.32 -0.4,0.24 -0.69333,0.61333 -0.29334,0.37333 -0.4,0.82667 z"
         id="path4686" />
    </g>
  </g>
</svg>
