<?xml version="1.0" encoding="UTF-8"?>
<svg width="66px" height="31px" viewBox="0 0 66 31" version="1.1" xmlns="http://www.w3.org/2000/svg" xmlns:xlink="http://www.w3.org/1999/xlink">
    <title>logo</title>
    <g id="Page-1" stroke="none" stroke-width="1" fill="none" fill-rule="evenodd">
        <g id="logo" transform="translate(0.000000, 0.000000)" fill-rule="nonzero">
            <g id="g25922" transform="translate(26.226066, -0.000000)">
                <polygon id="polygon25906" fill="#A12525" points="3.67429499 6.3116686 0.557912215 12.4716923 3.2964346 12.8779045 5.39353124 14.5520812 8.50991401 8.39194081"></polygon>
                <polygon id="polygon25908" fill="#831919" points="8.80718865 6.04929587 11.923698 12.2094363 9.18530225 12.615415 7.08804736 14.2896209 3.97156963 8.12948051"></polygon>
                <path d="M5.74217692,0.291281283 C6.07645263,0.507507469 6.62333416,0.507507469 6.95770483,0.291281283 L7.22734737,0.117056917 C7.56149648,-0.0991692685 7.99832435,-0.00713887386 8.19763636,0.321374317 L8.35852297,0.586023727 C8.55783498,0.914536918 9.05075002,1.13344842 9.45386862,1.07250346 L9.77823729,1.02332134 C10.1811343,0.962259625 10.5312993,1.21987468 10.5565892,1.59564356 L10.576878,1.89844195 C10.601883,2.2742984 10.9431222,2.66863098 11.334941,2.77487603 L11.6503839,2.86060178 C12.0421711,2.96681764 12.2365138,3.338938 12.0822107,3.68759105 L11.9581986,3.96852747 C11.8041805,4.31720971 11.9258187,4.80903088 12.2286008,5.06142124 L12.4727002,5.26489219 C12.7757672,5.51728255 12.7757672,5.93029558 12.4727002,6.18283189 L12.2286008,6.38618608 C11.9258187,6.63872238 11.8041805,7.13051437 11.9581986,7.47922579 L12.0822107,7.76013303 C12.2365138,8.10881527 12.0421711,8.48078969 11.6503839,8.58715149 L11.334941,8.67264372 C10.9431222,8.77900553 10.601883,9.17330892 10.576878,9.54919456 L10.5565892,9.85222645 C10.5312993,10.2278494 10.1811343,10.4854645 9.77823729,10.424286 L9.45386862,10.3752206 C9.05075002,10.3140422 8.55780333,10.5330412 8.35852297,10.8615836 L8.19763636,11.1264957 C7.99832435,11.4547754 7.56146482,11.5467766 7.22734737,11.3304337 L6.95770483,11.1565887 C6.62333416,10.9402458 6.07642098,10.9402458 5.74217692,11.1565887 L5.47281925,11.3304337 C5.13854353,11.5467766 4.70171566,11.4547754 4.50227704,11.1264957 L4.34151704,10.8615836 C4.14204676,10.5330412 3.64913173,10.3140422 3.24629799,10.3752206 L2.92164446,10.424286 C2.51865246,10.4854936 2.16858245,10.2278786 2.14345084,9.85222645 L2.12316197,9.54919456 C2.09803037,9.17330892 1.75691784,8.77897634 1.36522558,8.67264372 L1.04952953,8.58715149 C0.657868916,8.48078969 0.463399642,8.10881527 0.617576047,7.76013303 L0.741873058,7.47922579 C0.896049463,7.13054355 0.774252952,6.63872238 0.471312617,6.38618608 L0.227086557,6.18283189 C-0.0756955188,5.93029558 -0.0756955188,5.51728255 0.227086557,5.26489219 L0.471312617,5.06142124 C0.774252952,4.80903088 0.896017811,4.31718052 0.741873058,3.96852747 L0.617576047,3.68759105 C0.463399642,3.33890881 0.657868916,2.96681764 1.04952953,2.86060178 L1.36522558,2.77487603 C1.75691784,2.66863098 2.09799871,2.27432759 2.12316197,1.89844195 L2.14345084,1.59564356 C2.16858245,1.21987468 2.51865246,0.962259625 2.92164446,1.02332134 L3.24629799,1.07250346 C3.64916338,1.13344842 4.14204676,0.914566106 4.34151704,0.586023727 L4.50227704,0.321374317 C4.70171566,-0.00713887386 5.13857518,-0.0991692685 5.47281925,0.117056917 L5.74217692,0.291281283 Z" id="path25910" fill="#B99B3D"></path>
                <path d="M5.74217692,0.841245347 C6.07645263,1.05747153 6.62333416,1.05747153 6.95770483,0.841245347 L7.22734737,0.667020982 C7.56149648,0.450794796 7.99832435,0.542825191 8.19763636,0.871338382 L8.35852297,1.13601698 C8.55783498,1.46453017 9.05075002,1.68341248 9.45386862,1.62249671 L9.77823729,1.57331459 C10.1811343,1.51225288 10.5312993,1.76986793 10.5565892,2.14560763 L10.576878,2.44840602 C10.601883,2.82429166 10.9431222,3.21862424 11.334941,3.3248401 L11.6503839,3.41056584 C12.0421711,3.51681089 12.2365138,3.88890206 12.0822107,4.2375843 L11.9581986,4.51852072 C11.8041805,4.86720296 11.9258187,5.35899494 12.2286008,5.6114145 L12.4727002,5.81488544 C12.7757672,6.0672758 12.7757672,6.48031802 12.4727002,6.73282514 L12.2286008,6.93617933 C11.9258187,7.18868645 11.8041805,7.68050762 11.9581986,8.02918986 L12.0822107,8.30986359 C12.2365138,8.65854582 12.0421711,9.03101644 11.6503839,9.13714474 L11.334941,9.22287048 C10.9431222,9.32896959 10.601883,9.72353568 10.576878,10.0991586 L10.5565892,10.4019278 C10.5312993,10.7778135 10.1811343,11.035195 9.77823729,10.9744836 L9.45386862,10.9252139 C9.05075002,10.8642689 8.55780333,11.0830345 8.35852297,11.4115477 L8.19763636,11.6761971 C7.99832435,12.004973 7.56146482,12.0967407 7.22734737,11.8806604 L6.95770483,11.7063193 C6.62333416,11.4902099 6.07642098,11.4902099 5.74217692,11.7063193 L5.47281925,11.8806604 C5.13854353,12.0967407 4.70171566,12.004973 4.50227704,11.6761971 L4.34151704,11.4115477 C4.14204676,11.0830345 3.64913173,10.8642689 3.24629799,10.9252139 L2.92164446,10.9744836 C2.51865246,11.035195 2.16858245,10.7778135 2.14345084,10.4019278 L2.12316197,10.0991586 C2.09803037,9.72353568 1.75691784,9.3289404 1.36522558,9.22287048 L1.04952953,9.13714474 C0.657868916,9.03101644 0.463399642,8.65857501 0.617576047,8.30986359 L0.741873058,8.02918986 C0.896049463,7.68050762 0.774252952,7.18868645 0.471312617,6.93617933 L0.227086557,6.73282514 C-0.0756955188,6.48031802 -0.0756955188,6.0672758 0.227086557,5.81488544 L0.471312617,5.6114145 C0.774252952,5.35902413 0.896017811,4.86720296 0.741873058,4.51852072 L0.617576047,4.2375843 C0.463399642,3.88890206 0.657868916,3.51681089 1.04952953,3.41056584 L1.36522558,3.3248401 C1.75691784,3.21862424 2.09799871,2.82429166 2.12316197,2.44840602 L2.14345084,2.14560763 C2.16858245,1.76986793 2.51865246,1.51222369 2.92164446,1.57331459 L3.24629799,1.62249671 C3.64916338,1.68344167 4.14204676,1.46455936 4.34151704,1.13601698 L4.50227704,0.871338382 C4.70171566,0.542825191 5.13857518,0.450794796 5.47281925,0.667020982 L5.74217692,0.841245347 Z" id="path25912" fill="#EFC84A"></path>
                <g id="g25918" transform="translate(1.845891, 2.120243)">
                    <path d="M0,4.15353924 C0,1.85958022 2.01666916,0 4.50412867,0 C6.99184141,0 9.00825735,1.85955103 9.00825735,4.15353924 C9.00825735,6.44752744 6.99180975,8.30696172 4.50412867,8.30696172 C2.01666916,8.30696172 0,6.44752744 0,4.15353924 Z" id="path25914" fill="#DEB944"></path>
                    <path d="M4.50412867,7.91531445 C2.08775932,7.91531445 0.116130821,6.16051987 0.0051276078,3.95759885 C0.0018358102,4.02257178 8.99601105e-16,4.08786579 8.99601105e-16,4.15353924 C8.99601105e-16,6.44749825 2.01666916,8.30693253 4.50412867,8.30693253 C6.99184141,8.30693253 9.00825735,6.44749825 9.00825735,4.15353924 C9.00825735,4.08786579 9.00638989,4.02254259 9.00300313,3.95759885 C8.89237974,6.16051987 6.92049802,7.91531445 4.50412867,7.91531445 L4.50412867,7.91531445 Z" id="path25916" fill="#B99B3D"></path>
                </g>
                <path d="M6.35002,2.51191954 C8.76638935,2.51191954 10.7383027,4.26659737 10.8488945,6.46960595 C10.8522812,6.40466221 10.8541487,6.33948496 10.8541487,6.27378232 C10.8541487,3.97982331 8.83773274,2.12024308 6.35002,2.12024308 C3.86256049,2.12024308 1.84589133,3.97979412 1.84589133,6.27378232 C1.84589133,6.33945577 1.84772714,6.40466221 1.85101894,6.46960595 C1.9619905,4.26659737 3.93365065,2.51191954 6.35002,2.51191954 Z" id="path25920" fill="#FFDC7B"></path>
            </g>
            <g id="text1461" transform="translate(0.000000, 16.933336)" fill="#0D0F14">
                <path d="M9.39607475,3.15491809 L9.39607475,2.01981591 L1.25395585,2.01981591 L1.25395585,0.100155374 L11.7493878,0.100155374 L11.7493878,4.69064705 L3.60726887,4.69064705 L3.60726887,5.77567153 L11.7493878,5.77567153 L11.7493878,7.31140049 L1.25395585,7.31140049 L1.25395585,3.15491809 L9.39607475,3.15491809 Z M13.0205182,11.6681936 L0,11.6681936 L0,9.76522567 L5.34219263,9.76522567 L5.34219263,8.0124934 L7.52372964,8.0124934 L7.52372964,9.76522567 L13.0205182,9.76522567 L13.0205182,11.6681936 Z" id="path4653"></path>
                <path d="M22.5864876,5.49189533 L25.8845619,5.49189533 L25.8845619,7.31140049 L15.5780833,7.31140049 L15.5780833,0 L25.8845619,0 L25.8845619,2.00312335 L22.5864876,2.00312335 L22.5864876,5.49189533 Z M19.8896253,7.99580084 L22.071165,7.99580084 L22.071165,9.74853311 L27.4477096,9.74853311 L27.4477096,11.6681936 L14.3928367,11.6681936 L14.3928367,9.74853311 L19.8896253,9.74853311 L19.8896253,7.99580084 Z M17.8798616,2.00312335 L17.8798616,5.49189533 L20.2847066,5.49189533 L20.2847066,2.00312335 L17.8798616,2.00312335 Z" id="path4655"></path>
            </g>
            <g id="text12021" transform="translate(28.708540, 20.171606)" fill="#0D0F14">
                <path d="M8.13929,9.50523 L6.44596,9.50523 L6.44596,6.61527 C6.1675,6.86362333 5.8627,7.07435 5.53156,7.24745 C5.20042,7.42054333 4.85799,7.56729667 4.50427,7.68771 C4.15055,7.80060333 3.79306667,7.89091667 3.43182,7.95865 C3.07058,8.02638333 2.72438667,8.0753 2.39324,8.1054 C1.59549333,8.18818667 0.797746667,8.19572 0,8.128 L0,6.57013 C0.413926667,6.65291667 0.842903333,6.69431 1.28693,6.69431 C1.73849,6.68677667 2.18252,6.65667667 2.61902,6.60401 C3.06305333,6.54381 3.48827,6.46855 3.89467,6.37823 C4.30859667,6.28039 4.68113,6.18255333 5.01227,6.08472 C5.35093667,5.97935333 5.64068333,5.88528 5.88151,5.8025 C6.12987,5.71218667 6.31049333,5.64445333 6.42338,5.5993 L6.42338,0 L8.13929,0 L8.13929,9.50523 Z M3.44311,0.24833 C3.67641667,0.24833 3.88714333,0.289723333 4.07529,0.37251 C4.26343667,0.447763333 4.42524333,0.556886667 4.56071,0.69988 C4.69617667,0.842873333 4.79777667,1.00844333 4.86551,1.19659 C4.94077,1.38474333 4.9784,1.58418333 4.9784,1.79491 L4.9784,3.3302 C4.9784,3.80433333 4.83164333,4.18063 4.53813,4.45909 C4.24462333,4.73002333 3.83822333,4.86549 3.31893,4.86549 L1.96427,4.86549 C1.76107,4.86549 1.56539333,4.83162333 1.37724,4.76389 C1.18909333,4.69615667 1.01976,4.60208 0.86924,4.48166 C0.726246667,4.35372 0.609596667,4.20320333 0.51929,4.03011 C0.436503333,3.85701 0.39511,3.66133667 0.39511,3.44309 L0.39511,1.79491 C0.39511,1.58418333 0.43274,1.38474333 0.508,1.19659 C0.590786667,1.00844333 0.699913333,0.842873333 0.83538,0.69988 C0.978366667,0.556886667 1.14393667,0.447763333 1.33209,0.37251 C1.52776333,0.289723333 1.73849,0.24833 1.96427,0.24833 L3.44311,0.24833 Z M3.61245,2.08842 C3.61245,1.90779333 3.54847667,1.75727333 3.42053,1.63686 C3.30011667,1.50892 3.14583667,1.44495 2.95769,1.44495 L2.47227,1.44495 C2.28411667,1.44495 2.11854333,1.50892 1.97555,1.63686 C1.83256333,1.75727333 1.76107,1.90779333 1.76107,2.08842 L1.76107,3.0254 C1.76107,3.21354667 1.83256333,3.37159 1.97555,3.49953 C2.11854333,3.61994333 2.28411667,3.68015 2.47227,3.68015 L2.95769,3.68015 C3.14583667,3.68015 3.30011667,3.61994333 3.42053,3.49953 C3.54847667,3.37159 3.61245,3.21354667 3.61245,3.0254 L3.61245,2.08842 Z" id="path4658"></path>
            </g>
            <g id="text1596" transform="translate(39.032843, 15.875003)" fill="#0D0F14">
                <path d="M7.07813324,7.73853324 L0,7.73853324 L0,0.863599989 L7.07813324,0.863599989 L7.07813324,7.73853324 Z M1.72719998,9.34719988 L3.80999995,9.34719988 L3.80999995,12.0734665 L11.7009332,12.0734665 L11.7009332,14.0715998 L1.72719998,14.0715998 L1.72719998,9.34719988 Z M9.36413322,9.05933322 L9.36413322,3.00796421e-14 L11.5315999,3.00796421e-14 L11.5315999,9.05933322 L9.36413322,9.05933322 Z M2.01506664,2.8109333 L2.01506664,5.82506659 L5.0630666,5.82506659 L5.0630666,2.8109333 L2.01506664,2.8109333 Z" id="path4661"></path>
                <path d="M24.9520601,11.4807999 C24.9520601,11.9097776 24.912549,12.2992443 24.8335268,12.6491998 C24.7657934,12.9991554 24.6867712,13.3039554 24.5964601,13.5635998 C24.5400157,13.7216443 24.4835712,13.8683998 24.4271268,14.0038665 C24.3706823,14.1393332 24.3142379,14.2691554 24.2577934,14.3933332 L22.1749935,14.3933332 C22.3669046,14.0207998 22.5136601,13.6539109 22.6152601,13.2926665 C22.7168601,12.9427109 22.7902379,12.6322665 22.8353935,12.3613332 C22.880549,12.0452443 22.8974824,11.7460887 22.8861935,11.4638665 L14.7412602,11.4638665 L14.7412602,9.51653321 L24.9520601,9.51653321 L24.9520601,11.4807999 Z M26.2389934,8.41586656 L13.3865936,8.41586656 L13.3865936,6.46853325 L18.6528602,6.46853325 L18.6528602,4.72439994 L21.0065935,4.72439994 L21.0065935,6.46853325 L26.2389934,6.46853325 L26.2389934,8.41586656 Z M24.6303268,3.00796421e-14 L24.6303268,1.71026665 L21.1081935,1.71026665 C21.3113935,2.02635553 21.5484601,2.30857775 21.8193935,2.5569333 C22.1016157,2.80528885 22.3951268,3.02542218 22.6999268,3.21733329 C23.0047268,3.4092444 23.3151712,3.57293329 23.6312601,3.70839995 C23.9586379,3.84386662 24.2690823,3.95111106 24.5625934,4.03013328 L24.5625934,5.5710666 C23.4337046,5.44688882 22.4797935,5.1646666 21.7008601,4.72439994 C20.9332157,4.28413328 20.2671713,3.74226662 19.7027268,3.09879996 C19.4092157,3.4600444 19.0592602,3.78742217 18.6528602,4.08093328 C18.2464602,4.3631555 17.8174824,4.6171555 17.3659269,4.84293327 C16.9256602,5.06871105 16.4797491,5.26062216 16.0281935,5.4186666 C15.5879269,5.57671104 15.1871713,5.70088882 14.8259269,5.79119993 L14.8259269,4.11479995 C15.2097491,3.99062217 15.5935713,3.82693329 15.9773935,3.62373329 C16.3612158,3.4092444 16.7055269,3.18911107 17.0103269,2.9633333 C17.3264158,2.73755552 17.5860602,2.51177775 17.7892602,2.28599997 C18.0037491,2.0602222 18.1335713,1.86831109 18.1787269,1.71026665 L14.7581936,1.71026665 L14.7581936,3.00796421e-14 L24.6303268,3.00796421e-14 Z" id="path4663"></path>
            </g>
            <g id="text13614" transform="translate(5.027087, 3.965058)" fill="#BEBBD3">
                <path d="M4.19474116,0.0055139166 L3.52777156,0.0055139166 L3.52777156,1.94027423 L3.042703,1.94027423 L3.042703,0.0881962072 L2.39778378,0.0881962072 L2.39778378,4.77902846 L3.042703,4.77902846 L3.042703,2.5025138 L3.52777156,2.5025138 L3.52777156,5.02156406 L4.19474116,5.02156406 L4.19474116,0.0055139166 Z M0,3.88606237 L0.347265621,3.88606237 C1.0087213,3.8833107 1.54339923,3.86402258 2.15524818,3.74825943 L2.10563881,3.17499467 C1.62057025,3.26043392 1.19062234,3.28799556 0.705553783,3.29626379 L0.705553783,1.15203815 L1.86861712,1.15203815 L1.86861712,0.584287305 L0,0.584287305 L0,3.88606237 Z" id="path4666"></path>
                <path d="M8.72021147,0.0110251874 L8.01465769,0.0110251874 L8.01465769,3.7537707 L8.72021147,3.7537707 L8.72021147,2.12217526 L9.39820626,2.12217526 L9.39820626,1.54891315 L8.72021147,1.54891315 L8.72021147,0.0110251874 Z M4.74044427,1.09140624 L7.71700144,1.09140624 L7.71700144,0.534677931 L6.58149975,0.534677931 L6.58149975,-3.00796421e-14 L5.88145724,-3.00796421e-14 L5.88145724,0.534677931 L4.74044427,0.534677931 L4.74044427,1.09140624 Z M4.98297723,2.23793047 C4.98297723,2.81670651 5.49836439,3.19704504 6.22872286,3.19704504 C6.95632437,3.19704504 7.4634433,2.81670651 7.4634433,2.23793047 C7.4634433,1.65640012 6.95632437,1.26779336 6.22872286,1.26779336 C5.49836439,1.26779336 4.98297723,1.65640012 4.98297723,2.23793047 Z M5.46804579,4.9333705 L8.90211251,4.9333705 L8.90211251,4.37113092 L6.1680883,4.37113092 L6.1680883,3.46713964 L5.46804579,3.46713964 L5.46804579,4.9333705 Z M5.6719972,2.23793047 C5.66924553,1.95956764 5.89248243,1.80522825 6.22872286,1.80247129 C6.56772025,1.80522296 6.79647371,1.95956764 6.79647371,2.23793047 C6.79647371,2.51353899 6.56772025,2.66236711 6.22872286,2.66236711 C5.89248243,2.66236711 5.66924024,2.51353899 5.6719972,2.23793047 Z" id="path4668"></path>
                <path d="M12.3306653,0.407900182 L9.8777609,0.407900182 L9.8777609,2.82773169 L12.3306653,2.82773169 L12.3306653,0.407900182 Z M10.4620482,4.91132013 L13.9567495,4.91132013 L13.9567495,4.34356928 L11.1731159,4.34356928 L11.1731159,3.24665442 L10.4620482,3.24665442 L10.4620482,4.91132013 Z M10.5722921,2.27100339 L10.5722921,0.964625842 L11.6306228,0.964625842 L11.6306228,2.27100339 L10.5722921,2.27100339 Z M13.1189014,3.57738358 L13.8244578,3.57738358 L13.8244578,0.0110251874 L13.1189014,0.0110251874 L13.1189014,3.57738358 Z" id="path4670"></path>
                <path d="M18.5538769,0.225999143 L15.0702008,0.225999143 L15.0702008,0.782724803 L17.8538344,0.782724803 C17.8483311,1.11345397 17.8345463,1.48001036 17.7408335,1.95129941 L14.5079612,1.95129941 L14.5079612,2.51353899 L16.4427242,2.51353899 L16.4427242,3.23562923 L14.9709821,3.23562923 L14.9709821,3.78684362 L17.8538344,3.78684362 L17.8538344,5.02156406 L18.5593882,5.02156406 L18.5593882,3.23562923 L17.148278,3.23562923 L17.148278,2.51353899 L19.0995774,2.51353899 L19.0995774,1.95129941 L18.4519012,1.95129941 C18.5566312,1.41111021 18.5566312,0.986673571 18.5538769,0.617360221 L18.5538769,0.225999143 Z" id="path4672"></path>
            </g>
            <g id="text3736" transform="translate(40.740541, 3.965054)" fill="#BEBBD3">
                <polygon id="path4675" points="4.59161615 3.8805511 2.63480547 3.8805511 2.63480547 3.12538529 4.1782047 3.12538529 4.1782047 2.55212318 1.23472044 2.55212318 1.23472044 1.9898836 4.06244949 1.9898836 4.06244949 0.325217892 0.523652743 0.325217892 0.523652743 0.887454822 3.36791825 0.887454822 3.36791825 1.43866921 0.529164014 1.43866921 0.529164014 3.12538529 1.93476295 3.12538529 1.93476295 3.8805511 0 3.8805511 0 4.45932449 4.59161615 4.45932449"></polygon>
                <path d="M9.15015938,2.15524818 L8.03670542,2.15524818 L8.03670542,0.9811623 L9.11157255,0.9811623 L9.11157255,0.418922724 L7.33115164,0.418922724 L7.33115164,2.71197649 L9.15015938,2.71197649 L9.15015938,2.15524818 Z M4.88375848,4.43176549 L9.47537463,4.43176549 L9.47537463,3.86401464 L7.50753876,3.86401464 L7.50753876,2.93246171 L6.81301016,2.93246171 L6.81301016,3.86401464 L4.88375848,3.86401464 L4.88375848,4.43176549 Z M5.23653537,2.71197649 L5.55623935,2.71197649 C6.1543088,2.71472815 6.58976798,2.70647315 7.09964122,2.60173255 L7.05003185,2.02847043 C6.67520458,2.10012754 6.33620984,2.13044349 5.94208915,2.14146868 L5.94208915,0.9811623 L7.01695893,0.9811623 L7.01695893,0.418922724 L5.23653537,0.418922724 L5.23653537,2.71197649 Z" id="path4677"></path>
                <path d="M11.1510655,0.352776891 C10.3903911,0.352776891 9.84468798,1.04455117 9.85015788,2.13871172 C9.84469592,3.2411405 10.3903911,3.93016047 11.1510655,3.93016047 C11.851108,3.93016047 12.3692495,3.34035925 12.4436636,2.37573341 L13.3063137,2.37573341 L13.3063137,5.02707533 L14.0008449,5.02707533 L14.0008449,0 L13.3063137,0 L13.3063137,1.81349648 L12.4353953,1.81349648 C12.3361766,0.909505197 11.8290603,0.352776891 11.1510655,0.352776891 Z M10.5226828,2.13871172 C10.5199311,1.39457375 10.7762409,0.986673571 11.1510655,0.986673571 C11.5286471,0.986673571 11.7794509,1.39457375 11.7794509,2.13871172 C11.7794509,2.88560665 11.5286471,3.29350683 11.1510655,3.29076376 C10.7762409,3.29350154 10.5199258,2.88560665 10.5226828,2.13871172 Z" id="path4679"></path>
                <path d="M18.8184576,0.137802936 L15.0536644,0.137802936 L15.0536644,0.661458325 L15.7040975,0.661458325 L15.7040975,1.322914 L15.0867373,1.322914 L15.0867373,1.84656939 L18.7853847,1.84656939 L18.7853847,1.322914 L18.1625132,1.322914 L18.1625132,0.661458325 L18.8184576,0.661458325 L18.8184576,0.137802936 Z M14.6512781,2.66236711 L19.2263578,2.66236711 L19.2263578,2.11115272 L14.6512781,2.11115272 L14.6512781,2.66236711 Z M15.1804421,3.45611446 L17.9751009,3.45611446 L17.9751009,3.7096726 L15.185956,3.7096726 L15.185956,4.98297987 L18.8019211,4.98297987 L18.8019211,4.4648384 L15.8749733,4.4648384 L15.8749733,4.18922988 L18.6696295,4.18922988 L18.6696295,2.94899817 L15.1804421,2.94899817 L15.1804421,3.45611446 Z M16.4096513,1.322914 L16.4096513,0.661458325 L17.4569594,0.661458325 L17.4569594,1.322914 L16.4096513,1.322914 Z" id="path4681"></path>
            </g>
            <g id="text22212" transform="translate(28.288194, 3.538003)" fill="#FFFFFF">
                <path d="M1.47462079,1.70862954 C1.40876953,1.83562953 1.33351057,1.9391116 1.2488439,2.01907574 C1.20651057,2.05670478 1.16417724,2.08727915 1.1218439,2.11079884 C1.08421486,2.12961248 1.04658494,2.13431325 1.00895413,2.12490113 C0.990140494,2.11549961 0.983084939,2.09198079 0.987787467,2.0543447 C0.99249705,2.01671566 1.00190475,1.96497462 1.01601057,1.8991216 C1.03012168,1.83327033 1.04423279,1.73919685 1.0583439,1.61690114 C1.07245501,1.49460367 1.08186272,1.36760279 1.08656701,1.2358985 C1.09596853,1.10419597 1.1006693,0.977195976 1.1006693,0.854898505 C1.1006693,0.732602798 1.09361374,0.638529313 1.07950263,0.57267805 C0.985429147,0.59619598 0.89135478,0.622066056 0.797279532,0.650288278 C0.703206047,0.6785105 0.613835971,0.697325021 0.529169306,0.70673184 C0.505649612,0.70673184 0.463316279,0.697325021 0.402169307,0.678511382 C0.345724864,0.65969598 0.286928274,0.636177167 0.225779539,0.607954946 C0.169335095,0.579732724 0.117594061,0.549158356 0.0705564366,0.516231842 C0.0235188122,0.483305329 0,0.452730961 0,0.424508739 C0,0.372768587 0.0564453257,0.321028435 0.169335977,0.269288283 C0.286927392,0.217546367 0.4186308,0.170508743 0.564446201,0.12817541 C0.71496413,0.0858420771 0.860779531,0.0529164456 1.0018924,0.0293985153 C1.14770604,0.00588058504 1.24883508,-0.00352711623 1.30527953,0.00117541148 C1.33350175,0.00588499476 1.37113167,0.0199961057 1.41816929,0.0435087443 C1.46990945,0.0623241468 1.51929834,0.0881951048 1.56633596,0.121121618 C1.61807788,0.154046368 1.66276335,0.189324145 1.7003924,0.22695495 C1.74272573,0.264583991 1.7685958,0.302213033 1.77800262,0.339842074 C1.77800262,0.462139545 1.7685958,0.6056028 1.74978217,0.770231839 C1.73096676,0.930158351 1.69804025,1.09243701 1.65100263,1.25706781 C1.66040415,1.2617774 1.67451526,1.26413219 1.69333596,1.26413219 C1.72626247,1.26884177 1.7685958,1.28530503 1.82033596,1.31352196 C1.8767804,1.34174418 1.93322484,1.37466981 1.98966929,1.41229885 C2.04611373,1.44522537 2.10020691,1.48050314 2.15194883,1.51813218 C2.20368898,1.5510587 2.24367017,1.58163307 2.27189239,1.60985529 C2.31422572,1.64748433 2.33774453,1.68746552 2.34244882,1.72979885 C2.35185035,1.76742965 2.35420514,1.81917069 2.3495132,1.88502195 C2.34480362,1.9602818 2.33539592,2.06141172 2.3212901,2.18841172 C2.31188857,2.31541172 2.29777746,2.44476386 2.27895676,2.57646815 C2.5894012,2.56706662 2.87867898,2.56471183 3.14679009,2.56940377 C3.41960548,2.57411336 3.62892088,2.59528002 3.77473629,2.63290377 C3.80295851,2.63761336 3.84058843,2.66113217 3.88762606,2.70346021 C3.93466192,2.74108925 3.97699525,2.78577473 4.01462605,2.83751665 C4.05695939,2.88455251 4.08988502,2.9339414 4.11340295,2.98568331 C4.13692088,3.03271917 4.14397643,3.07034821 4.13456961,3.09857043 C4.12516809,3.12209013 4.10164927,3.1432568 4.06401318,3.16207043 C4.02638414,3.17618155 3.9840508,3.19029266 3.93701318,3.20440377 C3.88997732,3.21380529 3.84058843,3.22086085 3.78884651,3.22557043 C3.74181065,3.23028002 3.70182947,3.23028002 3.66890295,3.22557043 C3.41960548,3.19264568 3.1514935,3.16912775 2.86456698,3.15501664 C2.58234477,3.13620124 2.29306699,3.12679354 1.99673366,3.12679354 C1.70040033,3.12208396 1.40171486,3.12678472 1.10067724,3.14089583 C0.804343907,3.15500694 0.519769542,3.17382234 0.246954143,3.19734204 C0.18110288,3.20674357 0.124658436,3.20909836 0.0776208115,3.20440641 C0.0352874787,3.19500489 0.0117686665,3.18324592 0.00706437491,3.16912952 C-0.00233715275,3.14561159 0.00236361108,3.10798166 0.0211666664,3.05623975 C0.0446863605,3.0044996 0.0682051728,2.96687055 0.091723103,2.94335262 C0.124649616,2.9151304 0.171687241,2.88925944 0.232835976,2.86573975 C0.298687239,2.83751753 0.366890648,2.81164745 0.437446203,2.78812952 C0.512706049,2.76461159 0.58561375,2.74579707 0.656169304,2.73168596 C0.726724859,2.71287056 0.785521448,2.69875945 0.832559073,2.68935263 C0.95485478,2.67053723 1.0912616,2.65407397 1.24177953,2.63996286 C1.39700175,2.62585175 1.56163167,2.6140919 1.73566929,2.60468332 C1.72626776,2.48238761 1.71921221,2.3600919 1.71450262,2.2377962 C1.70979304,2.11549873 1.70743825,2.01907221 1.70743825,1.94851666 L1.47462079,1.70862954 Z M2.56117986,4.54496813 C2.56588945,4.5167459 2.57059021,4.47676383 2.57528216,4.42502192 C2.57999174,4.37328177 2.58234653,4.32154161 2.58234653,4.26980146 C2.58705611,4.21335702 2.5894109,4.16161598 2.5894109,4.11457836 C2.5894109,4.06754074 2.5894109,4.03226296 2.5894109,4.00874503 C2.47181949,4.01814656 2.33306053,4.03225767 2.17313401,4.05107836 C2.01791179,4.06989376 1.86268957,4.09106043 1.70746735,4.11457836 C1.64161433,4.12397989 1.57811345,4.13103544 1.51696471,4.13574503 C1.46052027,4.14045461 1.39937241,4.11223239 1.33352115,4.05107836 C1.31470575,4.03226296 1.28883567,4.006392 1.25591092,3.97346549 C1.2276887,3.94054074 1.20181774,3.90761511 1.17829805,3.87468859 C1.15478012,3.84176208 1.13361345,3.80883645 1.11479805,3.7759117 C1.10068517,3.74298518 1.09833215,3.71711423 1.10773367,3.69829882 C1.11244326,3.68418771 1.13125778,3.67478089 1.16417724,3.67007837 C1.19710375,3.66067684 1.23708494,3.65597607 1.2841208,3.65597607 C1.33115842,3.65126649 1.37819605,3.6489117 1.42523367,3.6489117 C1.47226953,3.6489117 1.51460286,3.6489117 1.55223367,3.6489117 C1.74508493,3.63951017 1.94028834,3.62304691 2.13784389,3.59952193 C2.33540121,3.576004 2.5306055,3.54542963 2.72345676,3.50779883 C2.75167898,3.50308924 2.79401231,3.51249694 2.85045676,3.53602193 C2.9069012,3.55953986 2.96099438,3.59011423 3.0127363,3.62774503 C3.06918074,3.66537407 3.11621748,3.71005867 3.15384652,3.76179882 C3.19147556,3.81354074 3.21029008,3.86528177 3.21029008,3.91702192 C3.21029008,3.95465097 3.20088327,4.00168859 3.18206963,4.0581348 C3.16325422,4.10987495 3.13738327,4.16631939 3.10445675,4.22746813 C3.07623453,4.2886151 3.04095675,4.34741081 2.99862342,4.40385525 C2.95629009,4.4602997 2.91160461,4.50968858 2.86456698,4.55202192 C2.87396851,4.5567315 2.88102407,4.56143226 2.88573365,4.56612421 C2.89513518,4.57083379 2.90454288,4.57553456 2.91395675,4.5802265 C2.95158756,4.61315301 2.98686534,4.65548635 3.01979009,4.7072265 C3.05742089,4.76367094 3.071532,4.80600427 3.06212342,4.8342265 C3.05272189,4.86715301 3.01979626,4.89067182 2.96334653,4.90478293 C2.90690208,4.92359834 2.83164224,4.94006159 2.73756699,4.9541727 C2.56353113,4.97769063 2.4036055,4.99415301 2.2577901,5.00355983 C2.11667899,5.01296136 1.95675248,5.02707247 1.77801056,5.04589316 C1.82504819,5.11644872 1.85091914,5.18935642 1.85562343,5.26461626 C1.86033302,5.34457864 1.86503378,5.43159745 1.86972573,5.5256727 C2.12843001,5.51627117 2.37067105,5.5045122 2.59644882,5.4903958 C2.8222266,5.48099427 3.07387533,5.47158657 3.35139502,5.4621727 C3.40783946,5.4621727 3.46428391,5.4715804 3.52072835,5.4903958 C3.58187532,5.50920944 3.63596762,5.53037611 3.68300525,5.5538958 C3.73004287,5.58211802 3.76767279,5.6079881 3.79589501,5.63150603 C3.82411724,5.65972825 3.83822835,5.68324706 3.83822835,5.70206246 C3.83822835,5.75380262 3.79119161,5.80083936 3.69711812,5.84317269 C3.60774716,5.89021032 3.5089685,5.91843254 3.40078214,5.92783936 C3.13267104,5.96076587 2.8222266,5.99134024 2.46944882,6.01956246 C2.12137358,6.04778468 1.77800262,6.0665992 1.43933596,6.07600602 C1.34526248,6.08071561 1.27705907,6.06190109 1.23472573,6.01956246 C1.19709493,5.97722913 1.17592826,5.93254365 1.17122574,5.88550602 C1.16182421,5.81965476 1.15712344,5.74674706 1.15712344,5.66678292 C1.16183303,5.59152484 1.18299969,5.53037699 1.22062344,5.48333936 C1.26295678,5.43159745 1.291179,5.3563376 1.30529011,5.25755982 C1.32410551,5.15878205 1.31469869,5.06235642 1.27706965,4.96828293 C1.25825425,4.9588814 1.23708758,4.94241815 1.21356965,4.91889316 C1.19004996,4.89537523 1.16888329,4.86715301 1.15006965,4.8342265 C1.13125425,4.80600427 1.11714314,4.77543079 1.10773632,4.74250604 C1.09833479,4.70957953 1.09833479,4.67900516 1.10773632,4.65078294 C1.1124459,4.63667183 1.12655701,4.62726412 1.15006965,4.62255983 C1.17829187,4.6131583 1.23473632,4.60610275 1.31940298,4.60139317 L2.56117986,4.54496813 Z M3.13973629,0.198739784 C3.16795852,0.203449367 3.20558756,0.217560478 3.25262342,0.241073117 C3.30436533,0.259888519 3.35610637,0.285758595 3.40784652,0.318683345 C3.45958667,0.351609858 3.50662341,0.386887636 3.54895675,0.424516677 C3.59129008,0.462147482 3.61716104,0.499777405 3.62656962,0.537406446 C3.62656962,0.650295334 3.61480977,0.772591923 3.59129008,0.904296213 C3.57247644,1.03129621 3.54190296,1.15829621 3.49956962,1.28529621 C3.46193882,1.41229621 3.41490119,1.53459279 3.35845675,1.65218597 C3.30201231,1.76507486 3.23851231,1.86620478 3.16795675,1.95557574 C3.1162166,2.0261313 3.0527166,2.08963129 2.97745675,2.14607574 C2.90219691,2.20252018 2.84340032,2.2213347 2.80106699,2.2025193 C2.75403113,2.18370566 2.74697557,2.11550225 2.77990032,1.99790907 C2.80812254,1.88972271 2.8339935,1.77918509 2.85751319,1.6662962 C2.88573542,1.54870479 2.90690208,1.4358159 2.92101319,1.32762954 C2.93982859,1.21944494 2.95158756,1.11831502 2.95629009,1.02423977 C2.96569162,0.925461997 2.97039238,0.840795331 2.97039238,0.770239777 C2.92335475,0.779641304 2.88102054,0.791401152 2.84338974,0.805519318 C2.80576069,0.814920846 2.76342736,0.824327665 2.71638974,0.833739776 C2.6740564,0.843141304 2.62466752,0.854901151 2.56822307,0.869019317 C2.51648292,0.878420845 2.44827951,0.89017981 2.36361285,0.904296213 C2.33539062,0.909005796 2.29305729,0.904305032 2.23661285,0.890193921 C2.1801684,0.871378519 2.12137181,0.847859706 2.06022308,0.819637485 C1.99907434,0.786710971 1.94498204,0.75378534 1.89794618,0.72086059 C1.85561285,0.683229785 1.83444619,0.645599862 1.83444619,0.607970821 C1.83444619,0.565637488 1.89324189,0.520952009 2.01083331,0.473914385 C2.12842649,0.42687676 2.26248292,0.382191282 2.41300262,0.339857949 C2.56352054,0.297524616 2.70933506,0.262246839 2.85044617,0.234024617 C2.99155728,0.205802395 3.08798379,0.19404343 3.13972571,0.198747721 L3.13973629,0.198739784 Z" id="path4684"></path>
                <path d="M5.37734133,0.74907311 C5.37263174,0.744363527 5.34676167,0.742008735 5.2997311,0.742008735 C5.25269348,0.737299152 5.22447125,0.730243597 5.21506443,0.720842069 C5.18213792,0.697322375 5.13274815,0.654989042 5.06689512,0.593842071 C5.00104386,0.527989044 4.95635926,0.469192454 4.93284133,0.417452302 C4.92343981,0.403341191 4.93049536,0.382174525 4.954008,0.353952303 C4.97752593,0.325730081 5.00574815,0.299859123 5.03867467,0.276339429 C5.07630371,0.248117207 5.11158148,0.224599277 5.144508,0.205785638 C5.18213704,0.186970236 5.20565585,0.177562534 5.21506443,0.177562534 C5.30443363,0.186964062 5.37263704,0.191664826 5.41967466,0.191664826 C5.46671229,0.191664826 5.50904562,0.191664826 5.54667466,0.191664826 C5.5843037,0.191664826 5.62428489,0.189310034 5.66661822,0.184600451 C5.71365584,0.179890868 5.77715673,0.172835312 5.85712086,0.163433784 C6.11112086,0.13991409 6.30867641,0.111691868 6.44978752,0.0787671188 C6.59560292,0.0458406054 6.68732514,0.0293773486 6.72495419,0.0293773486 C6.82843625,0.0293773486 6.92015848,0.0481918692 7.00012085,0.0858209104 C7.08478751,0.118747424 7.12712085,0.201062826 7.12712085,0.332767116 C7.12712085,0.375100448 7.11300974,0.415081635 7.08478751,0.452710677 C7.06126958,0.490339718 7.03069522,0.525617495 6.99306441,0.558544009 C6.96013966,0.591470522 6.92486188,0.619692744 6.88723108,0.643210674 C6.84960204,0.662026077 6.81667641,0.676137188 6.78845419,0.685544007 C6.6943807,0.718470521 6.57678752,0.749044888 6.43567465,0.77726711 C6.29926783,0.80078504 6.10171228,0.814896151 5.84300799,0.819600443 C5.8947499,0.913673928 5.93237983,1.01715511 5.95589776,1.130044 C5.97941569,1.23823036 5.9935268,1.36052695 5.99823109,1.49693377 C6.04526872,1.48753224 6.11817642,1.47577327 6.21695419,1.46165687 C6.3204345,1.44754576 6.42861997,1.4310825 6.54151063,1.4122671 C6.65439951,1.39345346 6.76258411,1.37699109 6.86606441,1.36287998 C6.97425077,1.34876887 7.05656617,1.33700902 7.11301062,1.32760044 C7.17886188,1.31819891 7.2611764,1.31819891 7.35995418,1.32760044 C7.46343625,1.33231002 7.54575165,1.34171772 7.60690038,1.35582354 C7.63041831,1.36053312 7.65158498,1.37464423 7.67040038,1.39815687 C7.69391831,1.4216748 7.71273283,1.44989703 7.72684394,1.48282354 C7.74095506,1.51104576 7.75036276,1.54162013 7.75506705,1.57454664 C7.75977663,1.60276886 7.75977663,1.62628679 7.75506705,1.64510043 C7.74566552,1.67332265 7.72685012,1.70624917 7.69862084,1.74387997 C7.67510291,1.77680472 7.64452942,1.80973035 7.60690038,1.84265687 C7.57397387,1.87087909 7.53634395,1.89674917 7.49401061,1.9202671 C7.45638157,1.9390825 7.4211038,1.94613805 7.38817728,1.94143376 C7.12947299,1.91791583 6.85900974,1.91556104 6.57678752,1.93436939 C6.29926783,1.95318479 6.01234132,1.99787027 5.71600799,2.06842582 C5.69249006,2.07313541 5.66426784,2.06843464 5.63134132,2.05432353 C5.59841481,2.04021242 5.56548918,2.0213979 5.53256443,1.99787997 C5.49963792,1.96965775 5.46906355,1.94378679 5.44084133,1.9202671 C5.41261911,1.89204487 5.39145244,1.8661748 5.37734133,1.84265687 C5.35852593,1.80973035 5.35617113,1.77915599 5.37027695,1.75093376 C5.39379665,1.68978679 5.40790776,1.61923124 5.41261029,1.5392671 C5.42201181,1.45930473 5.42436661,1.37934235 5.41967466,1.29937998 C5.41496508,1.21471155 5.40320611,1.13239615 5.38439777,1.05243377 C5.36558236,0.967767108 5.34206355,0.892508143 5.31384133,0.82665688 C5.30913175,0.817255353 5.30677695,0.807847651 5.30677695,0.798433776 C5.30677695,0.789032249 5.31618466,0.779624548 5.33500006,0.770210673 L5.37734133,0.74907311 Z M4.3613387,3.06329883 C4.34722758,3.03037232 4.34252682,3.00920565 4.3472364,2.99979883 C4.35663793,2.9903973 4.37074904,2.9809896 4.38956974,2.97157573 C4.47894069,2.9292424 4.59182958,2.89161335 4.7282364,2.8586886 C4.86934751,2.82576209 5.01986632,2.79753987 5.17979283,2.77402194 C5.34442363,2.74579972 5.51610911,2.7222809 5.69484926,2.7034655 C5.87359118,2.6846501 6.0476288,2.67053899 6.21696213,2.66113217 C6.39099799,2.64702106 6.55092362,2.63761336 6.69673902,2.63290907 C6.84725871,2.62819948 6.97661086,2.62584469 7.08479545,2.62584469 C7.1600553,2.62584469 7.25177752,2.62819948 7.35996212,2.63290907 C7.472851,2.63290907 7.58573989,2.63996462 7.69862878,2.65407573 C7.81151767,2.66818684 7.91735188,2.68935351 8.01613142,2.71757573 C8.11961172,2.74579795 8.1995741,2.78578002 8.25601854,2.83752194 C8.27483394,2.87985527 8.28424165,2.93394757 8.28424165,2.99979883 C8.28424165,3.04213216 8.27718609,3.07035439 8.26307498,3.0844655 C8.24896387,3.09386703 8.23250061,3.10327473 8.21368521,3.1126886 C8.15253824,3.13620653 8.08433483,3.16207661 8.00907498,3.19029883 C7.93851943,3.21852105 7.87031514,3.24439113 7.80446211,3.26790906 C7.75742625,3.28202017 7.72214847,3.28907572 7.69862878,3.28907572 C7.67511085,3.28907572 7.63748181,3.28437496 7.58574165,3.27497343 C7.44933307,3.2514555 7.26823989,3.23969654 7.04246212,3.23969654 C6.81668434,3.23498695 6.57679546,3.23734175 6.32279546,3.24676091 C6.07349799,3.2514705 5.82655267,3.25852605 5.58195949,3.26792758 C5.34207061,3.27732911 5.13981164,3.28438466 4.9751826,3.28909425 C4.94696038,3.28909425 4.88110824,3.28673945 4.77762617,3.28202987 C4.67884839,3.27732029 4.59418173,3.27026473 4.52362617,3.2608632 C4.50010824,3.25615362 4.47894158,3.25145286 4.46012617,3.24676091 C4.44131077,3.24205133 4.42484751,3.22088466 4.4107364,3.18326091 L4.3613387,3.06329883 Z M5.46200799,4.73546812 C5.46200799,4.58965272 5.49023022,4.45324502 5.54667466,4.32624502 C5.60782339,4.19924503 5.69013791,4.0887074 5.79361822,3.99463215 C5.90180458,3.89585438 6.02880546,3.81824327 6.17462086,3.76179882 C6.32513879,3.70065185 6.48976871,3.66537407 6.66851062,3.65596549 C6.85665759,3.64656396 7.01893537,3.67713833 7.15534395,3.74768859 C7.29175077,3.81824415 7.41169521,3.93583733 7.51517728,4.10046813 C7.67510379,4.34505954 7.70567816,4.61317065 7.60690038,4.90480145 C7.52223372,5.16820827 7.38582602,5.36811597 7.19767728,5.50452455 C7.00952855,5.64093137 6.77904648,5.70913478 6.50623108,5.70913478 C6.21460205,5.70913478 5.97236102,5.62211685 5.77950799,5.44808099 C5.58665673,5.27874589 5.4808234,5.04120827 5.46200799,4.73546812 L5.46200799,4.73546812 Z M6.00528753,4.60846812 C5.98647213,4.68372621 5.99117289,4.75663391 6.01938982,4.82719123 C6.05231633,4.89774678 6.09700181,4.95889463 6.15344626,5.01063479 C6.21459323,5.06707923 6.28514878,5.10941256 6.36511292,5.13763478 C6.44977959,5.1705613 6.53209411,5.18232026 6.61205648,5.17291168 C6.71553855,5.16351015 6.81196506,5.12117682 6.90133602,5.04591168 C6.99070521,4.97535613 7.06126077,4.88598605 7.11300268,4.77780146 C7.17414965,4.64609717 7.16944889,4.51909717 7.09890039,4.39680146 C7.02834484,4.26980146 6.92016024,4.18748606 6.7743466,4.14985526 C6.69438246,4.13104162 6.61206706,4.12868682 6.5274004,4.14279088 C6.44743802,4.15690199 6.36982691,4.18512421 6.29456707,4.22745755 C6.22401151,4.26979088 6.16286366,4.32388318 6.11112351,4.38973444 C6.05938159,4.4555857 6.02410381,4.5284934 6.00529017,4.60845754 L6.00528753,4.60846812 Z" id="path4686"></path>
            </g>
        </g>
    </g>
</svg>