<?xml version="1.0" ?><svg id="Layer_1" style="enable-background:new 0 0 96 96;" version="1.1" viewBox="0 0 96 96" xml:space="preserve" xmlns="http://www.w3.org/2000/svg" xmlns:xlink="http://www.w3.org/1999/xlink"><style type="text/css">
	.st0{fill-rule:evenodd;clip-rule:evenodd;fill:#B29867;}
	.st1{fill-rule:evenodd;clip-rule:evenodd;fill:#806A50;}
	.st2{fill-rule:evenodd;clip-rule:evenodd;fill:#CD8C5D;}
	.st3{fill-rule:evenodd;clip-rule:evenodd;fill:#D1D3D4;}
	.st4{fill-rule:evenodd;clip-rule:evenodd;fill:#00AEEF;}
</style><g><rect class="st0" height="20" width="8" x="72.4" y="6.3"/><rect class="st1" height="4" width="12" x="70.4" y="4.3"/><path class="st1" d="M96.4,32.3v-4.3c0-1.5-0.8-2.8-2.1-3.5L50.1,0.8c-1.2-0.7-2.6-0.7-3.8,0L2.5,24.6c-1.3,0.7-2.1,2-2.1,3.5v4.3   H96.4z"/><polygon class="st2" points="92.4,96.3 4.4,96.3 4.4,28.1 48.2,4.3 92.4,28.1  "/><rect class="st1" height="4" width="96" x="0.4" y="92.3"/><polygon class="st3" points="78.7,87.8 87.9,87.8 87.9,62.8 71.9,62.8 71.9,87.8  "/><rect class="st4" height="8" width="8" x="75.9" y="75.8"/><rect class="st4" height="5" width="8" x="75.9" y="66.8"/><polygon class="st3" points="15.2,87.8 24.4,87.8 24.4,62.8 8.4,62.8 8.4,87.8  "/><rect class="st4" height="8" width="8" x="12.4" y="75.8"/><rect class="st4" height="5" width="8" x="12.4" y="66.8"/><rect class="st3" height="38" width="28" x="34.4" y="54.3"/><rect class="st1" height="34" width="20" x="38.4" y="58.3"/><polygon class="st3" points="78.7,55.3 87.9,55.3 87.9,30.3 71.9,30.3 71.9,55.3  "/><rect class="st4" height="8" width="8" x="75.9" y="43.3"/><rect class="st4" height="5" width="8" x="75.9" y="34.3"/><polygon class="st3" points="15.2,55.3 24.4,55.3 24.4,30.3 8.4,30.3 8.4,55.3  "/><rect class="st4" height="8" width="8" x="12.4" y="43.3"/><rect class="st4" height="5" width="8" x="12.4" y="34.3"/><polygon class="st3" points="47.2,45.3 56.4,45.3 56.4,20.3 40.4,20.3 40.4,45.3  "/><rect class="st4" height="8" width="8" x="44.4" y="33.3"/><rect class="st4" height="5" width="8" x="44.4" y="24.3"/></g></svg>